<svg width="1090" height="782" viewBox="0 0 1090 782" fill="none" xmlns="http://www.w3.org/2000/svg">
<path d="M166.374 615.641C172.903 623.68 167.725 637.971 158.719 636.185C68.6657 616.981 -2.24791e-05 514.262 -1.70716e-05 390.553C-1.16642e-05 266.845 66.8647 167.029 155.117 145.816C164.122 143.583 169.751 158.32 162.772 166.359C94.5561 246.301 94.5561 390.107 94.5561 390.107C94.5561 390.107 94.5561 527.883 166.374 615.641ZM468.953 729.748C480.886 742.029 471.205 763.466 455.22 760.786C293.124 731.757 169.301 577.01 169.301 390.33C169.301 203.65 289.747 53.1456 448.691 21.2136C465.126 17.864 475.032 40.1941 462.65 52.2524C339.727 172.835 339.727 389.66 339.727 389.66C339.727 389.66 339.727 597.33 469.179 729.748L468.953 729.748ZM474.357 391C474.357 175.068 650.862 -2.67574e-05 868.566 -1.72413e-05C1086.27 -7.72511e-06 1263 174.845 1263 391C1263 607.155 1086.5 782 868.791 782C651.087 782 474.582 606.932 474.582 391L474.357 391Z" fill="url(#paint0_linear_154_385)" fill-opacity="0.5"/>
<defs>
<linearGradient id="paint0_linear_154_385" x1="1.05126e-05" y1="391" x2="1263" y2="391" gradientUnits="userSpaceOnUse">
<stop stop-color="#4A4F4A"/>
<stop offset="1" stop-color="#626A61"/>
</linearGradient>
</defs>
</svg>
