<svg width="143" height="24" viewBox="0 0 143 24" fill="none" xmlns="http://www.w3.org/2000/svg">
<path fill-rule="evenodd" clip-rule="evenodd" d="M10.1084 4.31765C11.4642 4.44178 13.005 4.34868 14.3917 4.78312C17.4424 5.77611 18.3361 8.78613 16.5488 11.4858C14.7615 14.1855 10.663 15.4268 7.70477 14.1235C5.9483 13.3477 5.05465 11.9513 5.11628 9.93428C5.11628 9.59294 5.11628 9.2516 5.11628 8.72407C4.68487 9.06541 4.40753 9.37572 4.03775 9.53088C3.72959 9.68603 3.23655 9.77913 2.99002 9.62397C2.7435 9.46882 2.52779 8.94129 2.55861 8.63098C2.71268 7.38973 3.35981 6.42777 4.37671 5.74508C5.08547 5.27962 5.73259 5.65199 5.82504 6.48983C5.85585 6.73808 5.82504 6.98633 5.82504 7.29664C6.81113 6.48983 7.73559 5.71405 8.87576 4.78312C8.32108 4.87621 7.98211 5.03137 7.64314 5.00034C7.30417 4.9693 6.90357 4.81415 6.65705 4.5659C6.53379 4.44178 6.68787 3.91425 6.87276 3.72806C7.9513 2.64197 9.24554 2.02135 10.7863 2.05238C11.4951 2.05238 11.7416 2.64197 11.2794 3.20053C10.8788 3.69703 10.3857 4.0694 10.1084 4.31765Z" fill="white"/>
<path fill-rule="evenodd" clip-rule="evenodd" d="M19.3835 11.5168C21.3557 11.5168 22.3417 13.0374 21.4481 14.8682C20.5236 16.7301 18.9829 17.9093 16.8258 17.9713C14.7304 18.0334 14.0216 16.668 14.6687 14.7441C15.2542 12.9753 17.5037 11.5168 19.3835 11.5168Z" fill="white"/>
<path fill-rule="evenodd" clip-rule="evenodd" d="M21.3554 10.3688C19.5681 10.3688 17.9657 8.72414 17.9965 6.86227C17.9965 5.4969 18.9518 4.50391 20.2152 4.50391C21.9717 4.50391 23.8206 6.36577 23.7898 8.13455C23.759 9.53095 22.8345 10.3998 21.3554 10.3688Z" fill="white"/>
<path fill-rule="evenodd" clip-rule="evenodd" d="M9.58478 19.5849C8.75276 19.3677 7.88993 19.1815 7.11955 18.8712C6.34916 18.5608 5.76367 17.9092 5.76367 17.0093C5.76367 16.1094 6.37998 15.5819 7.18118 15.3336C8.72195 14.8061 10.2627 14.8371 11.711 15.5819C12.5122 15.9853 13.1594 16.6369 12.9745 17.692C12.7896 18.747 11.8959 19.0884 11.0331 19.3677C10.6017 19.4918 10.1395 19.4607 9.67722 19.4918C9.61559 19.4918 9.61559 19.5228 9.58478 19.5849Z" fill="white"/>
<path fill-rule="evenodd" clip-rule="evenodd" d="M25.6081 12.5098C27.3954 12.5098 28.1658 13.782 27.4262 15.2095C26.7483 16.4817 25.0843 17.2575 23.8825 16.8541C22.7423 16.4507 22.3109 15.4267 22.8656 14.3406C23.4511 13.1614 24.468 12.6029 25.6081 12.5098Z" fill="white"/>
<path fill-rule="evenodd" clip-rule="evenodd" d="M12.6972 23.4638C11.9884 23.2776 11.4337 23.1845 10.9407 22.9673C9.89297 22.4398 9.83134 21.2916 10.7866 20.6089C11.9576 19.8021 13.2518 19.7711 14.5153 20.2676C15.6246 20.702 15.7479 21.9122 14.7618 22.5949C14.1763 23.0294 13.3443 23.1845 12.6972 23.4638Z" fill="white"/>
<path fill-rule="evenodd" clip-rule="evenodd" d="M16.1479 4.62794C15.3159 4.34866 14.3914 4.1935 13.5594 3.7901C12.6349 3.32463 12.6966 2.51782 13.5902 2.02132C14.7304 1.33864 17.5038 1.49379 18.5207 2.26957C19.2911 2.85916 19.2602 3.63494 18.3974 4.03835C17.7503 4.31763 17.0107 4.41072 16.1479 4.62794Z" fill="white"/>
<path fill-rule="evenodd" clip-rule="evenodd" d="M5.54747 13.9063C5.6091 14.7441 5.30095 15.4268 4.53056 15.7371C3.72936 16.0785 3.05143 15.644 2.55838 15.0544C1.94207 14.2787 1.51066 13.3788 1.81881 12.3547C2.21941 10.9894 3.54447 10.586 4.49975 11.61C5.05442 12.2306 5.36258 13.0685 5.76318 13.7822C5.70155 13.8132 5.6091 13.8442 5.54747 13.9063Z" fill="white"/>
<path fill-rule="evenodd" clip-rule="evenodd" d="M21.6947 1.05933C22.4035 1.40067 23.0506 1.61789 23.5128 1.99026C23.7902 2.23851 24.0059 2.8281 23.9134 3.16944C23.7902 3.47975 23.2355 3.85213 22.8965 3.85213C22.2802 3.82109 21.6023 3.63491 21.1092 3.26253C20.7703 3.01429 20.4005 2.3316 20.4929 2.02129C20.5854 1.61789 21.2017 1.40067 21.6947 1.05933Z" fill="white"/>
<path fill-rule="evenodd" clip-rule="evenodd" d="M3.544 18.0334C3.23585 18.4679 3.05096 19.0575 2.71199 19.1506C2.37302 19.2437 1.78753 18.9644 1.541 18.623C1.23285 18.2196 0.986328 17.63 0.986328 17.1335C0.986328 16.7301 1.3253 16.1716 1.66427 15.9854C1.91079 15.8613 2.55791 16.1405 2.77362 16.4198C3.11259 16.8232 3.26666 17.3818 3.544 18.0334Z" fill="white"/>
<path fill-rule="evenodd" clip-rule="evenodd" d="M12.3577 1.49379C12.0188 1.27657 11.6798 1.05935 11.3408 0.842136C11.6798 0.593887 11.9879 0.221514 12.3577 0.0973892C12.8816 -0.0267352 13.4363 -0.0267352 13.9601 0.0663581C14.484 0.159451 14.5764 0.593887 14.0834 0.873167C13.6212 1.15245 13.0665 1.27657 12.3577 1.49379Z" fill="white"/>
<path fill-rule="evenodd" clip-rule="evenodd" d="M1.69571 9.15869C1.66489 10.1517 0.986955 11.1447 0.493909 11.0826C0.309017 11.0516 0.000863365 10.6792 0.000863365 10.462C-0.029952 9.71725 0.771247 8.63116 1.26429 8.69322C1.44919 8.75528 1.63408 9.09662 1.69571 9.15869Z" fill="white"/>
<path fill-rule="evenodd" clip-rule="evenodd" d="M4.37651 5.06246C4.19162 4.59699 4.06836 4.37977 4.06836 4.16255C4.06836 4.0074 4.25325 3.79018 4.43814 3.72812C4.99282 3.44884 5.57831 3.26265 6.1638 3.0144C6.19462 3.20059 6.31788 3.47987 6.25625 3.5109C5.70157 3.97637 5.11608 4.44184 4.37651 5.06246Z" fill="white"/>
<path d="M46.612 11.7594C46.612 14.952 44.4082 17.3269 41.2378 17.3269C37.8741 17.3269 35.5156 14.8352 35.5156 11.7594C35.5156 8.76143 37.7968 6.23071 41.2378 6.23071C43.2096 6.23071 44.7562 7.04833 45.6841 8.44996L43.9056 9.96839C43.2096 9.0729 42.3204 8.52783 41.1992 8.52783C39.3433 8.52783 37.9514 9.89052 37.9514 11.8762C37.9514 13.745 39.266 15.1466 41.1605 15.1466C42.591 15.1466 43.519 14.4458 43.9056 13.2778H41.0832V11.1753H46.5734V11.7594H46.612ZM52.9915 17.3659C49.8984 17.3659 47.3853 14.9909 47.3853 11.8372C47.3853 8.64463 49.8984 6.23071 52.9915 6.23071C56.1619 6.23071 58.5977 8.6057 58.5977 11.7594C58.5977 14.952 56.1619 17.3659 52.9915 17.3659ZM52.9915 15.1077C54.77 15.1077 56.1619 13.6671 56.1619 11.7983C56.1619 9.92946 54.77 8.48889 52.9915 8.48889C51.213 8.48889 49.8211 9.92946 49.8211 11.7983C49.8211 13.6671 51.1743 15.1077 52.9915 15.1077ZM59.6416 17.1323V6.46432H62.0387V14.913H66.949V17.1323H59.6416ZM68.0702 17.1323V6.46432H72.4005C75.6483 6.46432 77.8134 8.80037 77.8134 11.7594C77.8134 14.7573 75.5709 17.1323 72.2846 17.1323H68.0702ZM72.2846 8.68356H70.4674V14.913H72.3619C74.0631 14.913 75.3776 13.5893 75.3776 11.7594C75.3776 10.0073 74.0631 8.68356 72.2846 8.68356ZM78.8573 17.1323V6.46432H86.59V8.64463H81.2545V10.6692H86.2034V12.7716H81.2545V14.952H86.6287V17.1323H78.8573ZM94.2454 17.1323L89.9924 10.3577V17.1323H87.6726V6.46432H90.3017L94.5547 13.2389V6.46432H96.8745V17.1323H94.2454ZM112.031 11.7594C112.031 14.952 109.827 17.3269 106.656 17.3269C103.293 17.3269 100.934 14.8352 100.934 11.7594C100.934 8.7225 103.215 6.23071 106.656 6.23071C108.628 6.23071 110.175 7.04833 111.141 8.41102L109.363 9.92946C108.667 9.03397 107.778 8.48889 106.656 8.48889C104.801 8.48889 103.409 9.85159 103.409 11.8372C103.409 13.7061 104.723 15.1077 106.618 15.1077C108.048 15.1077 108.976 14.4069 109.363 13.2389H106.54V11.1364H112.031V11.7594ZM118.41 17.3659C115.317 17.3659 112.804 14.9909 112.804 11.8372C112.804 8.64463 115.317 6.26965 118.41 6.26965C121.58 6.26965 124.016 8.64463 124.016 11.7983C124.016 14.952 121.58 17.3659 118.41 17.3659ZM118.41 15.1077C120.189 15.1077 121.58 13.6671 121.58 11.7983C121.58 9.92946 120.189 8.48889 118.41 8.48889C116.632 8.48889 115.24 9.92946 115.24 11.7983C115.24 13.6671 116.632 15.1077 118.41 15.1077ZM131.053 13.161L129.661 8.99504L128.269 13.161H131.053ZM132.368 17.1323L131.749 15.3024H127.573L126.955 17.1323H124.48L128.269 6.46432H131.208L134.919 17.1323H132.368ZM135.693 17.1323V6.46432H138.09V14.913H143V17.1323H135.693Z" fill="white"/>
</svg>
