<svg width="325" height="51" viewBox="0 0 325 51" fill="none" xmlns="http://www.w3.org/2000/svg">
<path fill-rule="evenodd" clip-rule="evenodd" d="M22.9615 9.28367C26.0414 9.55056 29.5413 9.35039 32.6912 10.2845C39.6211 12.4196 41.651 18.8918 37.5911 24.6966C33.5312 30.5015 24.2214 33.1704 17.5016 30.3681C13.5117 28.7 11.4817 25.6975 11.6217 21.3605C11.6217 20.6265 11.6217 19.8926 11.6217 18.7583C10.6418 19.4923 10.0118 20.1595 9.17178 20.4931C8.4718 20.8267 7.35183 21.0269 6.79184 20.6933C6.23185 20.3597 5.74186 19.2254 5.81186 18.5581C6.16185 15.8892 7.63182 13.8208 9.94177 12.3529C11.5517 11.3521 13.0217 12.1528 13.2317 13.9543C13.3017 14.488 13.2317 15.0218 13.2317 15.6891C15.4716 13.9543 17.5716 12.2862 20.1615 10.2845C18.9016 10.4847 18.1316 10.8183 17.3616 10.7516C16.5916 10.6849 15.6816 10.3512 15.1216 9.81746C14.8417 9.55056 15.1916 8.41628 15.6116 8.01594C18.0616 5.68064 21.0015 4.34619 24.5014 4.41291C26.1114 4.41291 26.6714 5.68064 25.6214 6.88165C24.7114 7.94922 23.5914 8.74989 22.9615 9.28367Z" fill="white"/>
<path fill-rule="evenodd" clip-rule="evenodd" d="M44.0309 24.7634C48.5108 24.7634 50.7507 28.0328 48.7208 31.9695C46.6208 35.9729 43.1209 38.5083 38.221 38.6418C33.4611 38.7752 31.8512 35.8394 33.3211 31.7026C34.6511 27.8994 39.761 24.7634 44.0309 24.7634Z" fill="white"/>
<path fill-rule="evenodd" clip-rule="evenodd" d="M48.5109 22.2947C44.451 22.2947 40.8111 18.7584 40.8811 14.755C40.8811 11.8192 43.0511 9.68408 45.921 9.68408C49.9109 9.68408 54.1108 13.6874 54.0408 17.4906C53.9708 20.4932 51.8709 22.3614 48.5109 22.2947Z" fill="white"/>
<path fill-rule="evenodd" clip-rule="evenodd" d="M21.7713 42.1113C19.8814 41.6442 17.9214 41.2439 16.1715 40.5766C14.4215 39.9094 13.0916 38.5082 13.0916 36.5733C13.0916 34.6383 14.4915 33.504 16.3115 32.9702C19.8114 31.836 23.3113 31.9027 26.6012 33.504C28.4212 34.3714 29.8912 35.7726 29.4712 38.0412C29.0512 40.3097 27.0212 41.0437 25.0613 41.6442C24.0813 41.9111 23.0313 41.8444 21.9813 41.9111C21.8413 41.9111 21.8413 41.9778 21.7713 42.1113Z" fill="white"/>
<path fill-rule="evenodd" clip-rule="evenodd" d="M58.1706 26.8986C62.2305 26.8986 63.9805 29.6342 62.3005 32.7034C60.7606 35.4391 56.9806 37.1071 54.2507 36.2397C51.6608 35.3724 50.6808 33.1705 51.9408 30.8352C53.2707 28.2997 55.5807 27.0987 58.1706 26.8986Z" fill="white"/>
<path fill-rule="evenodd" clip-rule="evenodd" d="M28.8414 50.4517C27.2314 50.0513 25.9715 49.8512 24.8515 49.3841C22.4715 48.2498 22.3315 45.7811 24.5015 44.3132C27.1614 42.5784 30.1014 42.5116 32.9713 43.5792C35.4912 44.5133 35.7712 47.1155 33.5313 48.5834C32.2013 49.5175 30.3114 49.8512 28.8414 50.4517Z" fill="white"/>
<path fill-rule="evenodd" clip-rule="evenodd" d="M36.681 9.95095C34.791 9.35044 32.691 9.01683 30.8011 8.14943C28.7011 7.14859 28.8411 5.4138 30.8711 4.34623C33.461 2.87833 39.7609 3.21195 42.0708 4.88002C43.8208 6.14775 43.7508 7.81582 41.7908 8.68321C40.3209 9.28372 38.6409 9.48389 36.681 9.95095Z" fill="white"/>
<path fill-rule="evenodd" clip-rule="evenodd" d="M12.6017 29.901C12.7417 31.7025 12.0417 33.1704 10.2917 33.8376C8.47177 34.5716 6.93181 33.6375 5.81184 32.3697C4.41187 30.7017 3.43189 28.7667 4.13188 26.5649C5.04185 23.6291 8.05178 22.7617 10.2217 24.9635C11.4817 26.298 12.1817 28.0995 13.0917 29.6341C12.9517 29.7008 12.7417 29.7676 12.6017 29.901Z" fill="white"/>
<path fill-rule="evenodd" clip-rule="evenodd" d="M49.2807 2.27783C50.8907 3.01178 52.3606 3.47884 53.4106 4.27952C54.0406 4.8133 54.5306 6.08103 54.3206 6.81498C54.0406 7.48221 52.7806 8.28288 52.0107 8.28288C50.6107 8.21616 49.0707 7.81582 47.9508 7.01515C47.1808 6.48137 46.3408 5.01347 46.5508 4.34624C46.7608 3.47884 48.1607 3.01178 49.2807 2.27783Z" fill="white"/>
<path fill-rule="evenodd" clip-rule="evenodd" d="M8.05181 38.7752C7.35182 39.7093 6.93183 40.977 6.16185 41.1772C5.39187 41.3773 4.0619 40.7768 3.50191 40.0429C2.80193 39.1755 2.24194 37.9078 2.24194 36.8402C2.24194 35.9728 3.01193 34.7718 3.78191 34.3715C4.34189 34.1046 5.81186 34.7051 6.30185 35.3056C7.07183 36.173 7.42182 37.374 8.05181 38.7752Z" fill="white"/>
<path fill-rule="evenodd" clip-rule="evenodd" d="M28.0714 3.21193C27.3014 2.74487 26.5315 2.27781 25.7615 1.81075C26.5315 1.27697 27.2314 0.476296 28.0714 0.209405C29.2614 -0.0574858 30.5214 -0.0574857 31.7113 0.142683C32.9013 0.342851 33.1113 1.27697 31.9913 1.87747C30.9414 2.47798 29.6814 2.74487 28.0714 3.21193Z" fill="white"/>
<path fill-rule="evenodd" clip-rule="evenodd" d="M3.85187 19.6925C3.78187 21.8276 2.24191 23.9627 1.12193 23.8293C0.701945 23.7626 0.00196117 22.9619 0.00196117 22.4948C-0.0680372 20.8935 1.75192 18.5582 2.87189 18.6916C3.29188 18.8251 3.71187 19.559 3.85187 19.6925Z" fill="white"/>
<path fill-rule="evenodd" clip-rule="evenodd" d="M9.94168 10.885C9.52169 9.88418 9.2417 9.41712 9.2417 8.95006C9.2417 8.61645 9.66169 8.14939 10.0817 8.01595C11.3416 7.41544 12.6716 7.01511 14.0016 6.48132C14.0716 6.88166 14.3516 7.48216 14.2116 7.54889C12.9516 8.54973 11.6216 9.55057 9.94168 10.885Z" fill="white"/>
<path d="M105.881 25.2849C105.881 32.1496 100.875 37.2562 93.673 37.2562C86.0322 37.2562 80.6748 31.8984 80.6748 25.2849C80.6748 18.8387 85.8565 13.3972 93.673 13.3972C98.1521 13.3972 101.665 15.1552 103.773 18.169L99.733 21.4339C98.1521 19.5085 96.1321 18.3364 93.5852 18.3364C89.3695 18.3364 86.2078 21.2665 86.2078 25.536C86.2078 29.5544 89.1939 32.5681 93.4973 32.5681C96.7469 32.5681 98.8547 31.0612 99.733 28.5498H93.3217V24.0291H105.793V25.2849H105.881ZM120.372 37.3399C113.346 37.3399 107.637 32.2333 107.637 25.4523C107.637 18.5876 113.346 13.3972 120.372 13.3972C127.574 13.3972 133.107 18.5039 133.107 25.2849C133.107 32.1496 127.574 37.3399 120.372 37.3399ZM120.372 32.4844C124.412 32.4844 127.574 29.3869 127.574 25.3686C127.574 21.3502 124.412 18.2527 120.372 18.2527C116.332 18.2527 113.17 21.3502 113.17 25.3686C113.17 29.3869 116.244 32.4844 120.372 32.4844ZM135.478 36.8376V13.8995H140.923V32.0658H152.077V36.8376H135.478ZM154.624 36.8376V13.8995H164.46C171.838 13.8995 176.756 18.9225 176.756 25.2849C176.756 31.731 171.662 36.8376 164.197 36.8376H154.624ZM164.197 18.6713H160.069V32.0658H164.373C168.237 32.0658 171.223 29.2195 171.223 25.2849C171.223 21.5176 168.237 18.6713 164.197 18.6713ZM179.127 36.8376V13.8995H196.692V18.5876H184.572V22.9408H195.814V27.4615H184.572V32.1496H196.78V36.8376H179.127ZM214.082 36.8376L204.421 22.2711V36.8376H199.152V13.8995H205.124L214.784 28.4661V13.8995H220.054V36.8376H214.082ZM254.482 25.2849C254.482 32.1496 249.476 37.2562 242.274 37.2562C234.633 37.2562 229.276 31.8984 229.276 25.2849C229.276 18.755 234.457 13.3972 242.274 13.3972C246.753 13.3972 250.266 15.1552 252.462 18.0853L248.422 21.3502C246.841 19.4248 244.821 18.2527 242.274 18.2527C238.058 18.2527 234.897 21.1828 234.897 25.4523C234.897 29.4706 237.883 32.4844 242.186 32.4844C245.436 32.4844 247.543 30.9775 248.422 28.4661H242.01V23.9454H254.482V25.2849ZM268.973 37.3399C261.947 37.3399 256.238 32.2333 256.238 25.4523C256.238 18.5876 261.947 13.4809 268.973 13.4809C276.175 13.4809 281.708 18.5876 281.708 25.3686C281.708 32.1496 276.175 37.3399 268.973 37.3399ZM268.973 32.4844C273.013 32.4844 276.175 29.3869 276.175 25.3686C276.175 21.3502 273.013 18.2527 268.973 18.2527C264.933 18.2527 261.771 21.3502 261.771 25.3686C261.771 29.3869 264.933 32.4844 268.973 32.4844ZM297.692 28.2986L294.53 19.341L291.368 28.2986H297.692ZM300.678 36.8376L299.273 32.903H289.788L288.382 36.8376H282.761L291.368 13.8995H298.043L306.474 36.8376H300.678ZM308.231 36.8376V13.8995H313.676V32.0658H324.83V36.8376H308.231Z" fill="white"/>
</svg>
