<svg width="325" height="52" viewBox="0 0 325 52" fill="none" xmlns="http://www.w3.org/2000/svg">
<path d="M186.108 3.81262C187.635 3.81262 188.828 5.03775 188.828 6.50462C188.828 7.97147 187.635 9.24053 186.108 9.24053C184.582 9.24053 183.344 8.01543 183.344 6.50462C183.344 4.99382 184.582 3.81262 186.108 3.81262ZM184.343 13.7675H187.918V37.5502H184.343V13.7675Z" fill="white"/>
<path d="M186.108 3.81262C187.635 3.81262 188.828 5.03775 188.828 6.50462C188.828 7.97147 187.635 9.24053 186.108 9.24053C184.582 9.24053 183.344 8.01543 183.344 6.50462C183.344 4.99382 184.582 3.81262 186.108 3.81262ZM184.343 13.7675H187.918V37.5502H184.343V13.7675Z" fill="white"/>
<path d="M214.695 37.5507H211.071V22.8768C211.071 18.5805 208.351 16.5533 205.398 16.5533C201.773 16.5533 197.771 19.6188 197.771 25.4697V37.5507H194.146V13.7679H197.36L197.771 17.8718C199.536 14.7129 202.922 13.1526 206.114 13.1526C210.549 13.1526 214.695 16.0314 214.695 22.0252V37.5507Z" fill="white"/>
<path d="M214.695 37.5507H211.071V22.8768C211.071 18.5805 208.351 16.5533 205.398 16.5533C201.773 16.5533 197.771 19.6188 197.771 25.4697V37.5507H194.146V13.7679H197.36L197.771 17.8718C199.536 14.7129 202.922 13.1526 206.114 13.1526C210.549 13.1526 214.695 16.0314 214.695 22.0252V37.5507Z" fill="white"/>
<path d="M228.594 38.067C224.925 38.067 221.06 36.6991 218.391 34.0566L220.916 31.2712C222.826 33.5842 226.161 34.7159 229.071 34.7159C232.217 34.7159 234.41 33.4414 234.41 31.3206C234.41 28.9144 231.552 28.299 228.311 27.5464C224.208 26.6016 219.678 25.283 219.678 20.2781C219.678 15.2732 224.352 13.1526 228.644 13.1526C231.696 13.1526 234.604 14.1415 236.891 15.7951L235.032 18.4871C233.122 16.9763 230.408 16.3171 228.454 16.3171C225.501 16.3171 223.259 17.6356 223.259 20.0913C223.259 22.7337 225.88 23.536 228.982 24.2445C233.035 25.1402 238.136 25.8984 238.136 30.8483C238.136 35.518 233.606 38.067 228.598 38.067H228.594Z" fill="white"/>
<path d="M228.594 38.067C224.925 38.067 221.06 36.6991 218.391 34.0566L220.916 31.2712C222.826 33.5842 226.161 34.7159 229.071 34.7159C232.217 34.7159 234.41 33.4414 234.41 31.3206C234.41 28.9144 231.552 28.299 228.311 27.5464C224.208 26.6016 219.678 25.283 219.678 20.2781C219.678 15.2732 224.352 13.1526 228.644 13.1526C231.696 13.1526 234.604 14.1415 236.891 15.7951L235.032 18.4871C233.122 16.9763 230.408 16.3171 228.454 16.3171C225.501 16.3171 223.259 17.6356 223.259 20.0913C223.259 22.7337 225.88 23.536 228.982 24.2445C233.035 25.1402 238.136 25.8984 238.136 30.8483C238.136 35.518 233.606 38.067 228.598 38.067H228.594Z" fill="white"/>
<path d="M244.897 3.81262C246.425 3.81262 247.617 5.03775 247.617 6.50462C247.617 7.97147 246.425 9.24053 244.897 9.24053C243.371 9.24053 242.132 8.01543 242.132 6.50462C242.132 4.99382 243.371 3.81262 244.897 3.81262ZM243.133 13.7675H246.706V37.5502H243.133V13.7675Z" fill="white"/>
<path d="M244.897 3.81262C246.425 3.81262 247.617 5.03775 247.617 6.50462C247.617 7.97147 246.425 9.24053 244.897 9.24053C243.371 9.24053 242.132 8.01543 242.132 6.50462C242.132 4.99382 243.371 3.81262 244.897 3.81262ZM243.133 13.7675H246.706V37.5502H243.133V13.7675Z" fill="white"/>
<path d="M276.906 37.5502H273.743L273.333 34.0561C271.524 36.5557 268.376 38.0171 265.04 38.0171C259.078 38.0171 252.932 33.721 252.932 25.4638C252.932 17.2065 259.178 13.1466 264.994 13.1466C268.142 13.1466 271.334 14.564 273.337 17.2505V4.51025H276.913V37.5392L276.906 37.5502ZM273.333 25.7989C273.333 19.6183 268.947 16.5033 264.75 16.5033C260.554 16.5033 256.553 19.426 256.553 25.4198C256.553 31.4136 260.987 34.622 265.228 34.622C269.47 34.622 273.333 31.6936 273.333 25.7989Z" fill="white"/>
<path d="M276.906 37.5502H273.743L273.333 34.0561C271.524 36.5557 268.376 38.0171 265.04 38.0171C259.078 38.0171 252.932 33.721 252.932 25.4638C252.932 17.2065 259.178 13.1466 264.994 13.1466C268.142 13.1466 271.334 14.564 273.337 17.2505V4.51025H276.913V37.5392L276.906 37.5502ZM273.333 25.7989C273.333 19.6183 268.947 16.5033 264.75 16.5033C260.554 16.5033 256.553 19.426 256.553 25.4198C256.553 31.4136 260.987 34.622 265.228 34.622C269.47 34.622 273.333 31.6936 273.333 25.7989Z" fill="white"/>
<path d="M294.976 38.1163C288.637 38.1163 283.102 33.5839 283.102 25.6122C283.102 17.6407 288.964 13.1577 295.114 13.1577C302.125 13.1577 305.7 18.5362 305.7 24.5739C305.7 25.3265 305.65 26.365 305.46 27.3098H287.061C287.725 32.5454 291.207 34.7156 295.353 34.7156C298.305 34.7156 301.026 33.5839 302.886 30.848L305.266 33.0673C302.502 36.5121 298.733 38.1163 294.97 38.1163H294.976ZM301.891 24.0081C301.841 18.723 298.172 16.4595 294.647 16.4595C290.784 16.4595 287.355 19.0526 286.928 24.0081H301.898H301.891Z" fill="white"/>
<path d="M294.976 38.1163C288.637 38.1163 283.102 33.5839 283.102 25.6122C283.102 17.6407 288.964 13.1577 295.114 13.1577C302.125 13.1577 305.7 18.5362 305.7 24.5739C305.7 25.3265 305.65 26.365 305.46 27.3098H287.061C287.725 32.5454 291.207 34.7156 295.353 34.7156C298.305 34.7156 301.026 33.5839 302.886 30.848L305.266 33.0673C302.502 36.5121 298.733 38.1163 294.97 38.1163H294.976ZM301.891 24.0081C301.841 18.723 298.172 16.4595 294.647 16.4595C290.784 16.4595 287.355 19.0526 286.928 24.0081H301.898H301.891Z" fill="white"/>
<path d="M324.821 14.0973L324.06 17.6354C323.156 17.2124 322.107 16.9761 321.152 16.9761C317.86 16.9761 315.53 19.3824 315.53 23.6786V37.5505H311.905V13.7677H315.12L315.53 16.9761C316.818 14.4764 319.105 13.4381 321.442 13.4381C322.678 13.4381 323.873 13.6743 324.828 14.0973H324.821Z" fill="white"/>
<path d="M324.821 14.0973L324.06 17.6354C323.156 17.2124 322.107 16.9761 321.152 16.9761C317.86 16.9761 315.53 19.3824 315.53 23.6786V37.5505H311.905V13.7677H315.12L315.53 16.9761C316.818 14.4764 319.105 13.4381 321.442 13.4381C322.678 13.4381 323.873 13.6743 324.828 14.0973H324.821Z" fill="white"/>
<path d="M73.7536 38.2149C67.7255 38.2149 63.6955 34.8088 63.6621 29.7105H69.9956C70.029 31.8256 71.6664 32.8859 73.9977 32.8859C75.802 32.8859 77.4172 32.0783 77.4172 30.4907C77.4172 28.9028 75.3356 28.3755 72.7933 27.9524C68.9577 27.3206 64.073 26.3044 64.073 20.7006C64.073 16.2012 67.942 13.0972 73.737 13.0972C79.532 13.0972 83.3399 16.2891 83.3676 21.0412H77.2061C77.1841 19.1514 75.8408 18.2174 73.5759 18.2174C71.5554 18.2174 70.3621 19.1349 70.3621 20.4974C70.3621 22.085 72.4102 22.4531 74.9081 22.8982C78.827 23.5958 83.8283 24.4144 83.8283 30.205C83.8283 35.0561 79.8207 38.2149 73.7536 38.2149Z" fill="white"/>
<path d="M73.7536 38.2149C67.7255 38.2149 63.6955 34.8088 63.6621 29.7105H69.9956C70.029 31.8256 71.6664 32.8859 73.9977 32.8859C75.802 32.8859 77.4172 32.0783 77.4172 30.4907C77.4172 28.9028 75.3356 28.3755 72.7933 27.9524C68.9577 27.3206 64.073 26.3044 64.073 20.7006C64.073 16.2012 67.942 13.0972 73.737 13.0972C79.532 13.0972 83.3399 16.2891 83.3676 21.0412H77.2061C77.1841 19.1514 75.8408 18.2174 73.5759 18.2174C71.5554 18.2174 70.3621 19.1349 70.3621 20.4974C70.3621 22.085 72.4102 22.4531 74.9081 22.8982C78.827 23.5958 83.8283 24.4144 83.8283 30.205C83.8283 35.0561 79.8207 38.2149 73.7536 38.2149Z" fill="white"/>
<path d="M100.008 13.0975C107.241 13.0975 112.592 18.454 112.592 25.6563C112.592 32.8589 107.241 38.2537 100.008 38.2537C97.5214 38.2537 95.2622 37.5287 93.4028 36.254V46.1154H86.9082V13.7678H91.2046L92.3147 15.9269C94.352 14.1359 97.0162 13.092 100.014 13.092L100.008 13.0975ZM106.014 25.6563C106.014 21.9205 103.25 19.1408 99.4753 19.1408C95.7008 19.1408 92.9254 21.9315 92.9254 25.6563C92.9254 29.3813 95.7008 32.1721 99.4753 32.1721C103.25 32.1721 106.014 29.3923 106.014 25.6563Z" fill="white"/>
<path d="M100.008 13.0975C107.241 13.0975 112.592 18.454 112.592 25.6563C112.592 32.8589 107.241 38.2537 100.008 38.2537C97.5214 38.2537 95.2622 37.5287 93.4028 36.254V46.1154H86.9082V13.7678H91.2046L92.3147 15.9269C94.352 14.1359 97.0162 13.092 100.014 13.092L100.008 13.0975ZM106.014 25.6563C106.014 21.9205 103.25 19.1408 99.4753 19.1408C95.7008 19.1408 92.9254 21.9315 92.9254 25.6563C92.9254 29.3813 95.7008 32.1721 99.4753 32.1721C103.25 32.1721 106.014 29.3923 106.014 25.6563Z" fill="white"/>
<path d="M115.679 25.656C115.679 18.4427 121.224 13.0972 128.668 13.0972C136.112 13.0972 141.657 18.4536 141.657 25.656C141.657 32.8585 136.073 38.2149 128.668 38.2149C121.263 38.2149 115.679 32.8255 115.679 25.656ZM135.063 25.656C135.063 21.805 132.404 19.1404 128.663 19.1404C124.921 19.1404 122.263 21.805 122.263 25.656C122.263 29.5072 124.921 32.1717 128.663 32.1717C132.404 32.1717 135.063 29.5072 135.063 25.656Z" fill="white"/>
<path d="M115.679 25.656C115.679 18.4427 121.224 13.0972 128.668 13.0972C136.112 13.0972 141.657 18.4536 141.657 25.656C141.657 32.8585 136.073 38.2149 128.668 38.2149C121.263 38.2149 115.679 32.8255 115.679 25.656ZM135.063 25.656C135.063 21.805 132.404 19.1404 128.663 19.1404C124.921 19.1404 122.263 21.805 122.263 25.656C122.263 29.5072 124.921 32.1717 128.663 32.1717C132.404 32.1717 135.063 29.5072 135.063 25.656Z" fill="white"/>
<path d="M159.148 13.6356V19.7008H156.328C152.67 19.7008 151.221 21.305 151.221 25.1948V37.5448H144.727V13.7675H148.89L150.044 16.6792C151.754 14.5751 153.924 13.6356 157.011 13.6356H159.148Z" fill="white"/>
<path d="M159.148 13.6356V19.7008H156.328C152.67 19.7008 151.221 21.305 151.221 25.1948V37.5448H144.727V13.7675H148.89L150.044 16.6792C151.754 14.5751 153.924 13.6356 157.011 13.6356H159.148Z" fill="white"/>
<path d="M176.455 31.82C174.09 31.82 172.753 30.5015 172.753 28.1995V18.9314H178.037V13.7617H172.642V7.5592H166.258V13.7617H162.223V18.9314H166.258V29.0511C166.258 34.3251 169.505 37.539 174.79 37.539H179.402V31.8144H176.449L176.455 31.82Z" fill="white"/>
<path d="M176.455 31.82C174.09 31.82 172.753 30.5015 172.753 28.1995V18.9314H178.037V13.7617H172.642V7.5592H166.258V13.7617H162.223V18.9314H166.258V29.0511C166.258 34.3251 169.505 37.539 174.79 37.539H179.402V31.8144H176.449L176.455 31.82Z" fill="white"/>
<path d="M41.2536 25.5902C41.2536 34.0013 34.3651 40.8247 25.8613 40.8247C17.3574 40.8247 10.4688 34.0069 10.4688 25.5902H0V40.1599C0 46.2471 4.98463 51.1804 11.1349 51.1804H40.5819C46.7323 51.1804 51.717 46.2471 51.717 40.1599V25.5902H41.2481H41.2536Z" fill="white"/>
<path d="M41.2536 25.5902C41.2536 34.0013 34.3651 40.8247 25.8613 40.8247C17.3574 40.8247 10.4688 34.0069 10.4688 25.5902H0V40.1599C0 46.2471 4.98463 51.1804 11.1349 51.1804H40.5819C46.7323 51.1804 51.717 46.2471 51.717 40.1599V25.5902H41.2481H41.2536Z" fill="white"/>
<path d="M10.4699 25.5902C10.4699 17.1792 17.3584 10.3559 25.8624 10.3559C34.3661 10.3559 41.2547 17.1737 41.2547 25.5902H51.7235V11.0206C51.7235 4.93348 46.7388 0 40.5887 0H11.1415C4.99122 0 0.0065918 4.93348 0.0065918 11.0206V25.5902H10.4754H10.4699Z" fill="white"/>
<path d="M10.4699 25.5902C10.4699 17.1792 17.3584 10.3559 25.8624 10.3559C34.3661 10.3559 41.2547 17.1737 41.2547 25.5902H51.7235V11.0206C51.7235 4.93348 46.7388 0 40.5887 0H11.1415C4.99122 0 0.0065918 4.93348 0.0065918 11.0206V25.5902H10.4754H10.4699Z" fill="white"/>
</svg>
