<svg width="694" height="595" viewBox="0 0 694 595" fill="none" xmlns="http://www.w3.org/2000/svg">
<path d="M693 738.362C693 759.132 690.337 779.743 685.074 800.13L685.073 800.13C679.774 820.532 672.434 840.354 663.084 859.562C653.991 878.177 643.384 895.941 631.232 912.886L630.052 914.523C623.197 923.943 616.079 933.038 608.634 941.808C600.594 951.278 607.428 965.187 619.666 965.187L654.142 965.187C661.036 965.187 666.615 970.693 666.615 977.422L666.615 1086.77C666.615 1093.49 661.036 1099 654.142 1099L25.6914 1099C19.0991 1099 13.7109 1093.97 13.2509 1087.64L13.251 977.454C13.251 970.725 18.8299 965.22 25.7246 965.22L73.3095 965.22C85.2645 965.22 91.9587 951.81 84.8662 942.488L84.5185 942.048C77.0697 932.95 69.9173 923.594 63.0283 913.945L63.0273 913.945C50.5792 896.542 39.7781 878.201 30.623 858.986L30.6221 858.985C21.4361 839.775 14.2263 820.048 8.92576 799.836C3.63093 779.646 0.999985 759.134 0.999986 738.362C1.00003 693.1 8.74031 650.57 24.2461 610.763L24.2461 610.762C39.7179 570.925 62.2303 536.108 91.7529 506.333L91.7539 506.333L93.1416 504.94C121.937 476.262 156.979 453.487 198.225 436.624L200.226 435.812C243.016 418.612 291.693 410 346.372 410C397.343 410 444.107 418.608 486.707 435.812C529.293 453.023 565.869 476.535 596.447 506.344L596.446 506.345C626.995 536.158 650.731 570.981 667.653 610.79C684.539 650.59 693 693.112 693 738.362ZM525.793 738.396C525.793 715.799 521.875 694.493 514.067 674.488C506.255 654.472 494.716 637.094 479.488 622.332C464.254 607.564 445.442 595.948 423.041 587.473C400.618 578.989 375.067 574.757 346.372 574.757C318.574 574.757 293.696 578.728 271.812 586.689L269.703 587.473C247.302 595.948 228.491 607.564 213.257 622.332C198.029 637.094 186.49 654.472 178.678 674.488C170.87 694.493 166.952 715.766 166.952 738.395C166.952 761.06 171.975 782.363 182.085 802.388L182.084 802.389C192.146 822.384 205.531 839.838 222.167 854.776C238.802 869.714 257.924 881.517 279.492 890.187C301.074 898.862 323.358 903.201 346.372 903.201C368.666 903.201 390.308 899.128 411.23 890.986L413.253 890.187C434.822 881.516 453.91 869.713 470.577 854.776L470.578 854.776L472.128 853.368C488.046 838.744 500.881 821.759 510.66 802.39L510.661 802.389L511.591 800.507C521.048 781.029 525.793 760.322 525.793 738.396Z" stroke="url(#paint0_linear_175_224)" stroke-opacity="0.2" stroke-width="2"/>
<path d="M688.779 421.71C689.999 428.494 686.02 433.974 680.262 436.512C674.718 438.954 667.696 438.575 662.459 433.986L661.874 433.422C600.532 374.095 521.757 344.46 458.377 329.651C426.679 322.245 398.811 318.541 378.864 316.689C368.89 315.763 360.896 315.301 355.392 315.069C352.64 314.953 350.51 314.895 349.067 314.866C348.346 314.852 347.795 314.844 347.425 314.841C347.24 314.839 347.1 314.838 347.006 314.838C346.959 314.838 346.923 314.837 346.898 314.837L346.863 314.837C346.862 314.838 346.861 314.877 346.861 315.837C346.861 314.873 346.86 314.838 346.858 314.837L346.822 314.837C346.797 314.837 346.76 314.838 346.711 314.838C346.613 314.838 346.466 314.839 346.273 314.841C345.888 314.844 345.314 314.85 344.563 314.864C343.062 314.892 340.847 314.948 337.99 315.058C332.277 315.278 323.995 315.718 313.711 316.598C293.143 318.358 264.558 321.878 232.486 328.919C168.87 342.885 91.4076 370.729 35.6211 426.286L34.3076 427.603C29.0358 432.917 21.5602 433.444 15.7207 430.838C9.88617 428.234 5.87967 422.609 7.28319 415.703C36.7176 270.891 175.446 161 347.455 161C519.464 161 662.043 273.933 688.779 421.71Z" stroke="white" stroke-opacity="0.2" stroke-width="2"/>
<path d="M571.866 146.445C572.592 149.854 570.256 152.77 566.467 154.181C562.837 155.532 558.259 155.305 554.893 152.804L554.893 152.785L554.524 152.485C513.836 119.263 461.61 102.684 419.626 94.4023C398.623 90.2593 380.159 88.1872 366.942 87.1514C360.334 86.6334 355.036 86.3748 351.388 86.2451C349.564 86.1803 348.152 86.1481 347.195 86.1318C346.717 86.1237 346.352 86.1192 346.106 86.1172C345.984 86.1162 345.89 86.1155 345.827 86.1152L345.732 86.1152L345.73 87.1152C345.73 86.1152 345.73 86.1152 345.729 86.1152L345.631 86.1152C345.566 86.1155 345.468 86.1162 345.34 86.1172C345.084 86.1191 344.704 86.1231 344.206 86.1308C343.21 86.1463 341.742 86.1766 339.85 86.2383C336.064 86.3615 330.577 86.6081 323.764 87.1006C310.138 88.0856 291.2 90.0559 269.951 93.9961C227.487 101.87 175.651 117.639 138.57 149.265L138.569 149.265C135.179 152.149 130.325 152.461 126.515 151.025C122.68 149.58 120.336 146.589 121.173 143.107C140.606 62.4367 232.217 1.00012 346.126 0.99999C460.039 0.999995 554.234 64.1337 571.865 146.446L571.866 146.445Z" stroke="white" stroke-opacity="0.2" stroke-width="2"/>
<defs>
<linearGradient id="paint0_linear_175_224" x1="347" y1="409" x2="347" y2="1100" gradientUnits="userSpaceOnUse">
<stop stop-color="white"/>
<stop offset="0.216346" stop-color="#999999" stop-opacity="0"/>
</linearGradient>
</defs>
</svg>
