<svg width="1364" height="159" viewBox="0 0 1364 159" fill="none" xmlns="http://www.w3.org/2000/svg">
<path d="M248.654 156.054H223.602C221.93 156.054 220.57 154.672 220.57 152.973V142.095C220.57 139.505 217.62 138.086 215.635 139.709C213.547 141.415 211.399 143.053 209.185 144.631C205.187 147.485 200.973 149.961 196.559 152.06C192.144 154.166 187.611 155.82 182.966 157.035C178.321 158.251 173.602 158.854 168.824 158.854C158.427 158.854 148.654 157.08 139.506 153.525C130.35 149.976 122.347 144.812 115.502 138.041C108.65 131.269 103.247 122.972 99.2937 113.165C95.3401 103.351 93.3633 92.1925 93.3633 79.6678C93.3633 67.9888 95.3401 57.2685 99.2937 47.4995C103.247 37.738 108.65 29.3505 115.502 22.337C122.354 15.3311 130.358 9.88789 139.506 6.00745C148.654 2.13456 158.427 0.194336 168.824 0.194336C173.602 0.194336 178.344 0.805848 183.033 2.01377C187.722 3.22923 192.278 4.91277 196.692 7.05683C201.107 9.20843 205.313 11.73 209.319 14.629C211.481 16.1993 213.57 17.83 215.583 19.5361C217.597 21.2423 220.563 19.8004 220.563 17.1882V9.30657C220.563 7.60794 221.923 6.22638 223.595 6.22638H248.647C250.319 6.22638 251.679 7.60794 251.679 9.30657V152.981C251.679 154.68 250.319 156.061 248.647 156.061L248.654 156.054ZM206.361 79.6678C206.361 74.4361 205.372 69.3628 203.396 64.4632C201.419 59.556 198.729 55.215 195.325 51.4252C191.921 47.6429 187.945 44.608 183.39 42.313C178.834 40.0255 173.981 38.8779 168.831 38.8779C163.681 38.8779 158.828 39.7688 154.273 41.5429C149.717 43.317 145.764 45.9367 142.404 49.3944C139.045 52.852 136.4 57.1251 134.467 62.221C132.535 67.3169 131.569 73.13 131.569 79.6678C131.569 86.2057 132.535 92.0264 134.467 97.1147C136.4 102.211 139.045 106.484 142.404 109.941C145.764 113.399 149.717 116.019 154.273 117.793C158.828 119.567 163.674 120.458 168.831 120.458C173.989 120.458 178.834 119.318 183.39 117.023C187.945 114.735 191.921 111.693 195.325 107.911C198.729 104.128 201.419 99.7797 203.396 94.8725C205.372 89.9654 206.361 84.8997 206.361 79.6678Z" fill="url(#paint0_linear_175_235)"/>
<path d="M99.2047 7.77846C101.702 5.20408 99.6803 0.629093 96.3138 1.23305C62.3067 7.37079 36.3481 40.0903 36.3481 79.5288C36.3481 118.967 61.6082 150.804 94.9315 157.56C98.3575 158.255 100.461 153.559 97.867 150.992C72.0793 125.52 72.0793 79.6647 72.0793 79.6647C72.0793 79.6647 72.0793 35.7493 99.2047 7.77091V7.77846Z" fill="url(#paint1_linear_175_235)"/>
<path d="M34.8765 32.163C36.2588 30.4569 35.1366 27.422 33.2713 27.8221C14.4025 31.8913 0 53.5961 0 79.7551C0 105.914 14.016 127.022 32.5058 131.507C34.4083 131.967 35.5751 128.857 34.1334 127.151C19.8201 110.255 19.8201 79.8456 19.8201 79.8456C19.8201 79.8456 19.8201 50.7197 34.8691 32.163H34.8765Z" fill="url(#paint2_linear_175_235)"/>
<path d="M381.569 147.391C381.531 143.919 377.622 141.978 374.91 144.085C373.877 144.892 372.822 145.678 371.744 146.448C368.288 148.924 364.676 151.076 360.901 152.902C357.126 154.729 353.232 156.179 349.226 157.251C345.221 158.323 341.141 158.867 337.001 158.867C327.883 158.867 319.314 157.228 311.303 153.952C303.291 150.675 296.269 146.025 290.234 139.985C284.2 133.953 279.458 126.608 276.003 117.948C272.547 109.297 270.823 99.588 270.823 88.83V9.9604C270.823 7.63515 272.681 5.74023 274.977 5.74023H304.258C306.546 5.74023 308.412 7.6276 308.412 9.9604V88.83C308.412 93.8806 309.17 98.3951 310.693 102.374C312.209 106.352 314.26 109.697 316.839 112.407C319.418 115.125 322.435 117.178 325.891 118.583C329.347 119.987 333.055 120.689 337.016 120.689C340.977 120.689 344.544 119.775 348 117.948C351.456 116.121 354.473 113.713 357.052 110.723C359.63 107.734 361.659 104.337 363.131 100.547C364.602 96.7569 365.338 92.8538 365.338 88.83V9.9604C365.338 7.63515 367.196 5.74023 369.492 5.74023H398.906C401.195 5.74023 403.061 7.6276 403.061 9.9604V151.838C403.061 154.163 401.203 156.058 398.906 156.058H385.79C383.516 156.058 381.665 154.193 381.635 151.883L381.591 147.384L381.569 147.391Z" fill="url(#paint3_linear_175_235)"/>
<path d="M459.63 156.065H428.038C426.344 156.065 424.977 154.676 424.977 152.955V8.86528C424.977 7.14399 426.344 5.75488 428.038 5.75488H443.184C444.849 5.75488 446.216 7.11379 446.246 8.80488L446.409 17.1395C446.454 19.6535 449.293 21.103 451.277 19.5931C456.137 15.8788 461.466 12.8816 467.255 10.6017C474.991 7.55921 483.003 6.04177 491.296 6.04177H521.528C523.222 6.04177 524.59 7.43087 524.59 9.15215V41.1092C524.59 42.8304 523.222 44.2195 521.528 44.2195H491.296C487.335 44.2195 483.605 44.9669 480.104 46.4618C476.604 47.9566 473.564 50.0176 470.986 52.6372C468.407 55.2569 466.378 58.3447 464.907 61.9005C463.435 65.4563 462.699 69.2461 462.699 73.27V152.962C462.699 154.684 461.332 156.073 459.638 156.073L459.63 156.065Z" fill="url(#paint4_linear_175_235)"/>
<path d="M679.242 156.063H670.123L655.475 135.43C651.886 138.707 648.081 141.772 644.075 144.626C640.07 147.479 635.856 149.956 631.434 152.062C627.012 154.168 622.479 155.829 617.827 157.045C613.175 158.26 608.456 158.872 603.67 158.872C593.258 158.872 583.478 157.097 574.315 153.542C565.152 149.986 557.133 144.822 550.273 138.035C543.414 131.255 537.996 122.951 534.043 113.122C530.082 103.3 528.105 92.1189 528.105 79.5792C528.105 67.885 530.082 57.1497 534.043 47.3655C538.004 37.5889 543.414 29.1939 550.273 22.1729C557.133 15.1518 565.144 9.70865 574.315 5.82066C583.478 1.94022 593.265 0 603.67 0C608.456 0 613.204 0.611508 617.901 1.82698C622.598 3.04244 627.153 4.72598 631.575 6.87759C635.997 9.02919 640.211 11.5583 644.216 14.4573C648.222 17.3563 651.975 20.4893 655.475 23.8639L670.123 6.03959H679.242V156.071V156.063ZM641.251 79.5716C641.251 74.3323 640.263 69.259 638.279 64.3443C636.294 59.4296 633.604 55.0811 630.193 51.2913C626.782 47.5014 622.798 44.459 618.243 42.1715C613.687 39.8764 608.827 38.7364 603.67 38.7364C598.512 38.7364 593.652 39.6273 589.096 41.4014C584.541 43.1831 580.572 45.8028 577.213 49.2604C573.847 52.7257 571.201 57.0062 569.269 62.1021C567.336 67.2056 566.37 73.0262 566.37 79.5792C566.37 86.1322 567.336 91.9528 569.269 97.0487C571.201 102.152 573.847 106.433 577.213 109.89C580.572 113.356 584.533 115.975 589.096 117.749C593.652 119.531 598.512 120.414 603.67 120.414C608.827 120.414 613.687 119.267 618.243 116.972C622.798 114.677 626.782 111.642 630.193 107.852C633.597 104.062 636.294 99.7137 638.279 94.799C640.255 89.8843 641.251 84.811 641.251 79.5716Z" fill="url(#paint5_linear_175_235)"/>
<path d="M685.618 156.199H660.566C658.894 156.199 657.534 154.818 657.534 153.119V142.24C657.534 139.651 654.584 138.231 652.599 139.854C650.511 141.561 648.363 143.199 646.149 144.777C642.151 147.63 637.937 150.107 633.522 152.205C629.108 154.312 624.575 155.965 619.93 157.181C615.285 158.396 610.566 159 605.788 159C595.391 159 585.618 157.226 576.47 153.67C567.314 150.122 559.31 144.958 552.466 138.186C545.614 131.414 540.211 123.117 536.258 113.31C532.304 103.496 530.327 92.338 530.327 79.8134C530.327 68.1343 532.304 57.414 536.258 47.645C540.211 37.8835 545.614 29.496 552.466 22.4825C559.318 15.4766 567.322 10.0334 576.47 6.15295C585.618 2.28006 595.391 0.339844 605.788 0.339844C610.566 0.339844 615.308 0.951355 619.997 2.15927C624.686 3.37474 629.242 5.05827 633.656 7.20233C638.071 9.35394 642.277 11.8755 646.283 14.7745C648.445 16.3448 650.533 17.9755 652.547 19.6816C654.561 21.3878 657.527 19.9459 657.527 17.3338V9.45208C657.527 7.75345 658.886 6.37189 660.559 6.37189H685.611C687.283 6.37189 688.643 7.75345 688.643 9.45208V153.126C688.643 154.825 687.283 156.207 685.611 156.207L685.618 156.199ZM643.325 79.8058C643.325 74.574 642.336 69.5007 640.36 64.6011C638.383 59.694 635.692 55.353 632.289 51.5632C628.885 47.7809 624.909 44.746 620.354 42.4509C615.798 40.1634 610.945 39.0159 605.795 39.0159C600.645 39.0159 595.792 39.9067 591.237 41.6809C586.681 43.455 582.727 46.0747 579.368 49.5323C576.009 52.99 573.364 57.263 571.431 62.3589C569.499 67.4548 568.533 73.2679 568.533 79.8058C568.533 86.3437 569.499 92.1643 571.431 97.2527C573.364 102.349 576.009 106.622 579.368 110.079C582.727 113.537 586.681 116.157 591.237 117.931C595.792 119.705 600.638 120.596 605.795 120.596C610.953 120.596 615.798 119.456 620.354 117.161C624.909 114.873 628.885 111.831 632.289 108.048C635.692 104.266 638.383 99.9176 640.36 95.0105C642.336 90.1033 643.325 85.0376 643.325 79.8058Z" fill="url(#paint6_linear_175_235)"/>
<path d="M769.327 116.344C765.738 116.344 762.349 115.869 759.161 114.91C755.973 113.951 753.037 112.585 750.339 110.81C747.649 109.029 745.316 106.915 743.339 104.454L751.149 96.5192C753.483 99.4409 756.173 101.6 759.228 103.012C762.275 104.424 765.693 105.133 769.461 105.133C773.229 105.133 776.149 104.469 778.215 103.148C780.281 101.827 781.314 99.9769 781.314 97.6064C781.314 95.2358 780.482 93.3938 778.825 92.065C777.16 90.7439 775.035 89.6492 772.426 88.781C769.825 87.9128 767.061 87.0522 764.147 86.184C761.227 85.3158 758.47 84.1985 755.869 82.832C753.267 81.4656 751.135 79.5933 749.477 77.2227C747.813 74.8522 746.988 71.7041 746.988 67.7859C746.988 63.8677 747.932 60.4704 749.812 57.5941C751.699 54.7253 754.323 52.5133 757.689 50.9581C761.056 49.4104 765.113 48.6328 769.87 48.6328C774.893 48.6328 779.36 49.5237 783.269 51.2978C787.17 53.0795 790.381 55.7444 792.893 59.3003L785.082 67.2348C783.284 64.8642 781.062 63.0448 778.416 61.7614C775.77 60.4855 772.783 59.8438 769.461 59.8438C765.961 59.8438 763.293 60.4629 761.45 61.6934C759.607 62.924 758.693 64.6377 758.693 66.8195C758.693 69.0013 759.503 70.6924 761.115 71.8777C762.728 73.063 764.861 74.0671 767.506 74.89C770.152 75.7128 772.917 76.5584 775.785 77.419C778.654 78.2872 781.396 79.4498 783.997 80.9069C786.598 82.364 788.731 84.3268 790.388 86.7879C792.046 89.2491 792.878 92.4878 792.878 96.4966C792.878 102.604 790.745 107.436 786.487 110.992C782.221 114.547 776.499 116.329 769.32 116.329L769.327 116.344Z" fill="url(#paint7_linear_175_235)"/>
<path d="M806.478 142.194V50.0144H818.591V67.1064L816.302 82.832L818.591 98.6935V142.186H806.478V142.194ZM840.135 116.344C835.29 116.344 830.913 115.317 827.011 113.264C823.109 111.211 819.988 108.364 817.655 104.718C815.321 101.072 814.021 96.9194 813.753 92.2689V72.7081C814.021 67.9671 815.343 63.7997 817.722 60.1911C820.1 56.59 823.243 53.7665 827.145 51.713C831.046 49.6595 835.379 48.6328 840.135 48.6328C845.969 48.6328 851.246 50.1352 855.957 53.1474C860.669 56.1597 864.37 60.2137 867.067 65.3172C869.758 70.4282 871.103 76.1658 871.103 82.5527C871.103 88.9395 869.758 94.6772 867.067 99.7882C864.377 104.892 860.676 108.931 855.957 111.89C851.246 114.857 845.969 116.337 840.135 116.337V116.344ZM838.121 104.718C842.157 104.718 845.702 103.759 848.756 101.849C851.803 99.9316 854.233 97.3119 856.024 93.9826C857.815 90.6533 858.714 86.803 858.714 82.4243C858.714 78.0456 857.815 74.3086 856.024 70.934C854.226 67.5594 851.803 64.9397 848.756 63.0674C845.702 61.2027 842.201 60.2666 838.255 60.2666C834.309 60.2666 830.667 61.2027 827.621 63.0674C824.566 64.9397 822.188 67.5594 820.486 70.934C818.777 74.3086 817.93 78.1815 817.93 82.5602C817.93 86.9389 818.762 90.6533 820.419 93.9826C822.076 97.3119 824.455 99.9316 827.554 101.849C830.653 103.767 834.175 104.718 838.121 104.718Z" fill="url(#paint8_linear_175_235)"/>
<path d="M914.05 116.344C907.763 116.344 902.115 114.841 897.084 111.829C892.06 108.817 888.062 104.74 885.104 99.5914C882.139 94.4427 880.66 88.6749 880.66 82.288C880.66 75.9011 882.139 70.3221 885.104 65.2639C888.069 60.2057 892.06 56.1668 897.084 53.1621C902.108 50.1498 907.763 48.6475 914.05 48.6475C920.337 48.6475 925.874 50.1272 930.95 53.0941C936.018 56.0611 940.039 60.0925 942.996 65.1959C945.962 70.2994 947.441 75.9993 947.441 82.288C947.441 88.5767 945.962 94.4351 942.996 99.5914C940.031 104.74 936.018 108.824 930.95 111.829C925.881 114.841 920.248 116.344 914.05 116.344ZM914.05 104.446C918.086 104.446 921.675 103.487 924.819 101.577C927.962 99.6594 930.43 97.0397 932.221 93.7104C934.019 90.3811 934.911 86.5761 934.911 82.288C934.911 77.9999 933.989 74.3535 932.154 71.077C930.311 67.793 927.843 65.2186 924.752 63.3463C921.653 61.4816 918.086 60.5455 914.05 60.5455C910.015 60.5455 906.418 61.4816 903.282 63.3463C900.138 65.2186 897.671 67.793 895.88 71.077C894.082 74.361 893.19 78.098 893.19 82.288C893.19 86.478 894.089 90.3811 895.88 93.7104C897.671 97.0397 900.138 99.6594 903.282 101.577C906.425 103.495 910.015 104.446 914.05 104.446Z" fill="url(#paint9_linear_175_235)"/>
<path d="M961.033 114.97V50.0071H973.147V114.97H961.033ZM973.147 77.91L968.569 75.8565C968.569 67.5597 970.456 60.9463 974.224 56.024C977.992 51.1018 983.425 48.6406 990.514 48.6406C993.747 48.6406 996.66 49.2144 999.269 50.3468C1001.87 51.4868 1004.29 53.3817 1006.54 56.024L998.592 64.3662C997.247 62.9092 995.768 61.8598 994.148 61.2181C992.536 60.5839 990.648 60.2593 988.493 60.2593C984.004 60.2593 980.326 61.7163 977.45 64.638C974.574 67.5597 973.139 71.9761 973.139 77.9025L973.147 77.91Z" fill="url(#paint10_linear_175_235)"/>
<path d="M1008.96 61.2226V50.0116H1052.58V61.2226H1008.96ZM1024.71 114.967V22.7881H1036.83V114.967H1024.71Z" fill="url(#paint11_linear_175_235)"/>
<path d="M1092.02 116.344C1085.65 116.344 1079.91 114.865 1074.79 111.898C1069.68 108.938 1065.63 104.899 1062.68 99.796C1059.71 94.6925 1058.23 88.9021 1058.23 82.4246C1058.23 75.9471 1059.69 70.3001 1062.61 65.1891C1065.52 60.0857 1069.48 56.0467 1074.45 53.0873C1079.43 50.1279 1085.02 48.6406 1091.21 48.6406C1097.4 48.6406 1102.36 50.0071 1106.89 52.74C1111.43 55.4729 1114.97 59.2628 1117.53 64.0944C1120.08 68.9261 1121.36 74.3995 1121.36 80.507C1121.36 81.4205 1121.32 82.402 1121.23 83.4513C1121.14 84.5007 1120.96 85.7086 1120.69 87.0751H1066.71V76.8153H1114.24L1109.79 80.7788C1109.79 76.4001 1109.03 72.6858 1107.5 69.6358C1105.98 66.5858 1103.82 64.2152 1101.04 62.5241C1098.25 60.8406 1094.89 59.9951 1090.94 59.9951C1086.98 59.9951 1083.17 60.9086 1080.04 62.728C1076.89 64.555 1074.47 67.1067 1072.77 70.3832C1071.07 73.6672 1070.21 77.5401 1070.21 82.0094C1070.21 86.4787 1071.11 90.5554 1072.9 93.9753C1074.69 97.3953 1077.26 100.038 1080.58 101.91C1083.9 103.782 1087.71 104.711 1092.02 104.711C1095.61 104.711 1098.91 104.077 1101.91 102.793C1104.92 101.517 1107.5 99.5997 1109.66 97.048L1117.47 105.118C1114.41 108.765 1110.67 111.543 1106.22 113.461C1101.78 115.378 1097.05 116.329 1092.02 116.329V116.344Z" fill="url(#paint12_linear_175_235)"/>
<path d="M1134.57 114.97V17.3252H1146.68V114.978H1134.57V114.97Z" fill="url(#paint13_linear_175_235)"/>
<path d="M1164.45 114.97V17.3252H1176.56V114.978H1164.45V114.97Z" fill="url(#paint14_linear_175_235)"/>
<path d="M1223.96 116.344C1217.58 116.344 1211.84 114.865 1206.72 111.898C1201.61 108.938 1197.57 104.899 1194.61 99.796C1191.64 94.6925 1190.16 88.9021 1190.16 82.4246C1190.16 75.9471 1191.62 70.3001 1194.54 65.1891C1197.45 60.0857 1201.41 56.0467 1206.39 53.0873C1211.37 50.1279 1216.96 48.6406 1223.15 48.6406C1229.34 48.6406 1234.29 50.0071 1238.83 52.74C1243.36 55.4729 1246.9 59.2628 1249.46 64.0944C1252.02 68.9261 1253.3 74.3995 1253.3 80.507C1253.3 81.4205 1253.25 82.402 1253.16 83.4513C1253.07 84.5007 1252.89 85.7086 1252.63 87.0751H1198.64V76.8153H1246.17L1241.72 80.7788C1241.72 76.4001 1240.96 72.6858 1239.44 69.6358C1237.91 66.5858 1235.76 64.2152 1232.97 62.5241C1230.18 60.8406 1226.82 59.9951 1222.87 59.9951C1218.92 59.9951 1215.1 60.9086 1211.97 62.728C1208.82 64.555 1206.4 67.1067 1204.7 70.3832C1203 73.6672 1202.14 77.5401 1202.14 82.0094C1202.14 86.4787 1203.04 90.5554 1204.83 93.9753C1206.63 97.3953 1209.19 100.038 1212.51 101.91C1215.83 103.782 1219.65 104.711 1223.96 104.711C1227.55 104.711 1230.84 104.077 1233.85 102.793C1236.85 101.517 1239.44 99.5997 1241.59 97.048L1249.4 105.118C1246.35 108.765 1242.6 111.543 1238.16 113.461C1233.71 115.378 1228.98 116.329 1223.96 116.329V116.344Z" fill="url(#paint15_linear_175_235)"/>
<path d="M1266.5 114.97V50.0071H1278.62V114.97H1266.5ZM1278.62 77.91L1274.04 75.8565C1274.04 67.5597 1275.92 60.9463 1279.69 56.024C1283.46 51.1018 1288.89 48.6406 1295.98 48.6406C1299.22 48.6406 1302.13 49.2144 1304.74 50.3468C1307.34 51.4868 1309.76 53.3817 1312.01 56.024L1304.06 64.3662C1302.72 62.9092 1301.24 61.8598 1299.62 61.2181C1298 60.5839 1296.12 60.2593 1293.96 60.2593C1289.47 60.2593 1285.79 61.7163 1282.92 64.638C1280.04 67.5597 1278.61 71.9761 1278.61 77.9025L1278.62 77.91Z" fill="url(#paint16_linear_175_235)"/>
<path d="M1339.47 116.344C1335.88 116.344 1332.49 115.869 1329.3 114.91C1326.11 113.951 1323.18 112.585 1320.48 110.81C1317.79 109.029 1315.45 106.915 1313.48 104.454L1321.29 96.5192C1323.62 99.4409 1326.31 101.6 1329.37 103.012C1332.41 104.424 1335.83 105.133 1339.6 105.133C1343.37 105.133 1346.29 104.469 1348.35 103.148C1350.42 101.827 1351.45 99.9769 1351.45 97.6064C1351.45 95.2358 1350.62 93.3938 1348.96 92.065C1347.3 90.7439 1345.17 89.6492 1342.56 88.781C1339.96 87.9128 1337.2 87.0522 1334.29 86.184C1331.36 85.3158 1328.61 84.1985 1326.01 82.832C1323.41 81.4656 1321.27 79.5933 1319.62 77.2227C1317.95 74.8522 1317.13 71.7041 1317.13 67.7859C1317.13 63.8677 1318.07 60.4704 1319.95 57.5941C1321.84 54.7253 1324.46 52.5133 1327.83 50.9581C1331.19 49.4104 1335.25 48.6328 1340.01 48.6328C1345.03 48.6328 1349.5 49.5237 1353.41 51.2978C1357.31 53.0795 1360.52 55.7444 1363.03 59.3003L1355.22 67.2348C1353.42 64.8642 1351.2 63.0448 1348.55 61.7614C1345.91 60.4855 1342.92 59.8438 1339.6 59.8438C1336.1 59.8438 1333.43 60.4629 1331.59 61.6934C1329.74 62.924 1328.83 64.6377 1328.83 66.8195C1328.83 69.0013 1329.64 70.6924 1331.25 71.8777C1332.87 73.063 1335 74.0671 1337.64 74.89C1340.29 75.7128 1343.05 76.5584 1345.92 77.419C1348.79 78.2872 1351.53 79.4498 1354.14 80.9069C1356.74 82.364 1358.87 84.3268 1360.53 86.7879C1362.18 89.2491 1363.02 92.4878 1363.02 96.4966C1363.02 102.604 1360.88 107.436 1356.62 110.992C1352.36 114.547 1346.64 116.329 1339.46 116.329L1339.47 116.344Z" fill="url(#paint17_linear_175_235)"/>
<defs>
<linearGradient id="paint0_linear_175_235" x1="172.521" y1="0.194336" x2="172.521" y2="158.854" gradientUnits="userSpaceOnUse">
<stop stop-color="#1A1A1A" stop-opacity="0.5"/>
<stop offset="1" stop-color="#1A1A1A"/>
</linearGradient>
<linearGradient id="paint1_linear_175_235" x1="68.3335" y1="1.17871" x2="68.3333" y2="157.63" gradientUnits="userSpaceOnUse">
<stop stop-color="#1A1A1A" stop-opacity="0.5"/>
<stop offset="1" stop-color="#1A1A1A"/>
</linearGradient>
<linearGradient id="paint2_linear_175_235" x1="17.7462" y1="27.7861" x2="17.7461" y2="131.553" gradientUnits="userSpaceOnUse">
<stop stop-color="#1A1A1A" stop-opacity="0.5"/>
<stop offset="1" stop-color="#1A1A1A"/>
</linearGradient>
<linearGradient id="paint3_linear_175_235" x1="336.942" y1="5.74023" x2="336.942" y2="158.867" gradientUnits="userSpaceOnUse">
<stop stop-color="#1A1A1A" stop-opacity="0.5"/>
<stop offset="1" stop-color="#1A1A1A"/>
</linearGradient>
<linearGradient id="paint4_linear_175_235" x1="474.783" y1="5.75488" x2="474.783" y2="156.073" gradientUnits="userSpaceOnUse">
<stop stop-color="#1A1A1A" stop-opacity="0.5"/>
<stop offset="1" stop-color="#1A1A1A"/>
</linearGradient>
<linearGradient id="paint5_linear_175_235" x1="603.673" y1="0" x2="603.673" y2="158.872" gradientUnits="userSpaceOnUse">
<stop stop-color="#1A1A1A" stop-opacity="0.5"/>
<stop offset="1" stop-color="#1A1A1A"/>
</linearGradient>
<linearGradient id="paint6_linear_175_235" x1="609.485" y1="0.339844" x2="609.485" y2="159" gradientUnits="userSpaceOnUse">
<stop stop-color="#1A1A1A" stop-opacity="0.5"/>
<stop offset="1" stop-color="#1A1A1A"/>
</linearGradient>
<linearGradient id="paint7_linear_175_235" x1="768.116" y1="48.6328" x2="768.116" y2="116.344" gradientUnits="userSpaceOnUse">
<stop stop-color="#1A1A1A" stop-opacity="0.5"/>
<stop offset="1" stop-color="#1A1A1A"/>
</linearGradient>
<linearGradient id="paint8_linear_175_235" x1="838.79" y1="48.6328" x2="838.79" y2="142.194" gradientUnits="userSpaceOnUse">
<stop stop-color="#1A1A1A" stop-opacity="0.5"/>
<stop offset="1" stop-color="#1A1A1A"/>
</linearGradient>
<linearGradient id="paint9_linear_175_235" x1="914.05" y1="48.6475" x2="914.05" y2="116.344" gradientUnits="userSpaceOnUse">
<stop stop-color="#1A1A1A" stop-opacity="0.5"/>
<stop offset="1" stop-color="#1A1A1A"/>
</linearGradient>
<linearGradient id="paint10_linear_175_235" x1="983.785" y1="48.6406" x2="983.785" y2="114.97" gradientUnits="userSpaceOnUse">
<stop stop-color="#1A1A1A" stop-opacity="0.5"/>
<stop offset="1" stop-color="#1A1A1A"/>
</linearGradient>
<linearGradient id="paint11_linear_175_235" x1="1030.77" y1="22.7881" x2="1030.77" y2="114.967" gradientUnits="userSpaceOnUse">
<stop stop-color="#1A1A1A" stop-opacity="0.5"/>
<stop offset="1" stop-color="#1A1A1A"/>
</linearGradient>
<linearGradient id="paint12_linear_175_235" x1="1089.8" y1="48.6406" x2="1089.8" y2="116.344" gradientUnits="userSpaceOnUse">
<stop stop-color="#1A1A1A" stop-opacity="0.5"/>
<stop offset="1" stop-color="#1A1A1A"/>
</linearGradient>
<linearGradient id="paint13_linear_175_235" x1="1140.63" y1="17.3252" x2="1140.62" y2="114.978" gradientUnits="userSpaceOnUse">
<stop stop-color="#1A1A1A" stop-opacity="0.5"/>
<stop offset="1" stop-color="#1A1A1A"/>
</linearGradient>
<linearGradient id="paint14_linear_175_235" x1="1170.51" y1="17.3252" x2="1170.51" y2="114.978" gradientUnits="userSpaceOnUse">
<stop stop-color="#1A1A1A" stop-opacity="0.5"/>
<stop offset="1" stop-color="#1A1A1A"/>
</linearGradient>
<linearGradient id="paint15_linear_175_235" x1="1221.73" y1="48.6406" x2="1221.73" y2="116.344" gradientUnits="userSpaceOnUse">
<stop stop-color="#1A1A1A" stop-opacity="0.5"/>
<stop offset="1" stop-color="#1A1A1A"/>
</linearGradient>
<linearGradient id="paint16_linear_175_235" x1="1289.25" y1="48.6406" x2="1289.25" y2="114.97" gradientUnits="userSpaceOnUse">
<stop stop-color="#1A1A1A" stop-opacity="0.5"/>
<stop offset="1" stop-color="#1A1A1A"/>
</linearGradient>
<linearGradient id="paint17_linear_175_235" x1="1338.25" y1="48.6328" x2="1338.25" y2="116.344" gradientUnits="userSpaceOnUse">
<stop stop-color="#1A1A1A" stop-opacity="0.5"/>
<stop offset="1" stop-color="#1A1A1A"/>
</linearGradient>
</defs>
</svg>
