<svg width="192" height="23" viewBox="0 0 192 23" fill="none" xmlns="http://www.w3.org/2000/svg">
<path d="M35.026 21.9824H31.4972C31.2616 21.9824 31.07 21.7878 31.07 21.5486V20.0161C31.07 19.6514 30.6544 19.4515 30.3749 19.6801C30.0808 19.9204 29.7782 20.1512 29.4663 20.3735C28.9031 20.7754 28.3095 21.1243 27.6877 21.4199C27.0659 21.7166 26.4273 21.9495 25.7731 22.1207C25.1188 22.2919 24.454 22.377 23.7809 22.377C22.3164 22.377 20.9398 22.1271 19.6512 21.6262C18.3615 21.1264 17.234 20.399 16.2699 19.4451C15.3047 18.4912 14.5437 17.3224 13.9867 15.941C13.4298 14.5586 13.1514 12.9868 13.1514 11.2226C13.1514 9.57741 13.4298 8.06732 13.9867 6.69123C14.5437 5.3162 15.3047 4.13472 16.2699 3.14678C17.2351 2.15991 18.3625 1.39317 19.6512 0.84656C20.9398 0.301015 22.3164 0.02771 23.7809 0.02771C24.454 0.02771 25.1219 0.113849 25.7825 0.284C26.443 0.455214 27.0847 0.692361 27.7066 0.994378C28.3284 1.29746 28.9209 1.65265 29.4851 2.06101C29.7898 2.2822 30.0839 2.51191 30.3676 2.75225C30.6513 2.99258 31.069 2.78947 31.069 2.42152V1.31128C31.069 1.07201 31.2606 0.8774 31.4961 0.8774H35.025C35.2605 0.8774 35.4521 1.07201 35.4521 1.31128V21.5496C35.4521 21.7889 35.2605 21.9835 35.025 21.9835L35.026 21.9824ZM29.0685 11.2226C29.0685 10.4856 28.9293 9.77096 28.6508 9.08078C28.3723 8.38955 27.9934 7.77807 27.5139 7.24422C27.0345 6.71144 26.4744 6.28393 25.8327 5.96065C25.191 5.63842 24.5074 5.47678 23.782 5.47678C23.0565 5.47678 22.3729 5.60227 21.7312 5.85218C21.0895 6.10208 20.5326 6.4711 20.0594 6.95815C19.5863 7.44521 19.2136 8.04712 18.9414 8.76494C18.6692 9.48276 18.5331 10.3016 18.5331 11.2226C18.5331 12.1435 18.6692 12.9634 18.9414 13.6802C19.2136 14.398 19.5863 14.9999 20.0594 15.4869C20.5326 15.974 21.0895 16.343 21.7312 16.5929C22.3729 16.8428 23.0555 16.9683 23.782 16.9683C24.5085 16.9683 25.191 16.8077 25.8327 16.4845C26.4744 16.1622 27.0345 15.7337 27.5139 15.2009C27.9934 14.6681 28.3723 14.0556 28.6508 13.3643C28.9293 12.6731 29.0685 11.9595 29.0685 11.2226Z" fill="white"/>
<path d="M13.9742 1.09541C14.326 0.732773 14.0412 0.088328 13.567 0.173403C8.77671 1.03798 5.12012 5.64693 5.12012 11.2023C5.12012 16.7578 8.67831 21.2423 13.3723 22.1941C13.8549 22.2919 14.1512 21.6304 13.7858 21.2689C10.1533 17.6808 10.1533 11.2215 10.1533 11.2215C10.1533 11.2215 10.1533 5.03545 13.9742 1.09434V1.09541Z" fill="white"/>
<path d="M4.9128 4.53029C5.10751 4.28995 4.94944 3.86244 4.68668 3.91881C2.02877 4.492 0 7.54939 0 11.2342C0 14.919 1.97433 17.8924 4.57886 18.5241C4.84685 18.589 5.0112 18.1508 4.80811 17.9105C2.79191 15.5305 2.79191 11.247 2.79191 11.247C2.79191 11.247 2.79191 7.14422 4.91175 4.53029H4.9128Z" fill="white"/>
<path d="M53.7489 20.7616C53.7436 20.2724 53.193 19.9991 52.8109 20.2958C52.6654 20.4096 52.5167 20.5202 52.3649 20.6287C51.8782 20.9775 51.3694 21.2806 50.8376 21.5379C50.3058 21.7953 49.7573 21.9994 49.193 22.1504C48.6288 22.3015 48.0541 22.378 47.471 22.378C46.1865 22.378 44.9795 22.1473 43.851 21.6857C42.7225 21.2242 41.7333 20.5691 40.8833 19.7184C40.0332 18.8687 39.3653 17.8339 38.8786 16.6142C38.3918 15.3955 38.1489 14.0279 38.1489 12.5125V1.40271C38.1489 1.07517 38.4106 0.80825 38.7341 0.80825H42.8586C43.1811 0.80825 43.4438 1.07411 43.4438 1.40271V12.5125C43.4438 13.2239 43.5506 13.8599 43.7652 14.4203C43.9787 14.9807 44.2677 15.4518 44.6309 15.8336C44.9942 16.2164 45.4192 16.5057 45.906 16.7035C46.3927 16.9013 46.9151 17.0002 47.4731 17.0002C48.031 17.0002 48.5335 16.8715 49.0203 16.6142C49.5071 16.3568 49.9321 16.0176 50.2954 15.5965C50.6586 15.1753 50.9444 14.6968 51.1517 14.1629C51.3589 13.6291 51.4626 13.0793 51.4626 12.5125V1.40271C51.4626 1.07517 51.7243 0.80825 52.0478 0.80825H56.1911C56.5136 0.80825 56.7763 1.07411 56.7763 1.40271V21.388C56.7763 21.7155 56.5146 21.9824 56.1911 21.9824H54.3435C54.0231 21.9824 53.7625 21.7198 53.7583 21.3943L53.752 20.7605L53.7489 20.7616Z" fill="white"/>
<path d="M64.7447 21.9835H60.2946C60.0559 21.9835 59.8633 21.7878 59.8633 21.5454V1.24854C59.8633 1.00607 60.0559 0.810398 60.2946 0.810398H62.428C62.6625 0.810398 62.8551 1.00182 62.8593 1.24003L62.8824 2.41407C62.8886 2.76819 63.2885 2.97237 63.568 2.75969C64.2527 2.23647 65.0032 1.81429 65.8187 1.49313C66.9085 1.06456 68.037 0.850809 69.2052 0.850809H73.4638C73.7024 0.850809 73.8951 1.04648 73.8951 1.28895V5.79049C73.8951 6.03296 73.7024 6.22863 73.4638 6.22863H69.2052C68.6473 6.22863 68.1218 6.33391 67.6287 6.54447C67.1356 6.75503 66.7075 7.04535 66.3442 7.41437C65.981 7.78338 65.6952 8.21833 65.4879 8.71921C65.2807 9.22009 65.177 9.75394 65.177 10.3208V21.5464C65.177 21.7889 64.9844 21.9846 64.7457 21.9846L64.7447 21.9835Z" fill="white"/>
<path d="M95.6796 21.9835H94.3952L92.3318 19.0771C91.8262 19.5386 91.2902 19.9704 90.726 20.3724C90.1618 20.7744 89.5682 21.1232 88.9453 21.4199C88.3225 21.7166 87.6839 21.9505 87.0286 22.1217C86.3733 22.293 85.7085 22.3791 85.0344 22.3791C83.5677 22.3791 82.1901 22.1292 80.8994 21.6283C79.6086 21.1274 78.4791 20.4 77.5128 19.444C76.5466 18.489 75.7835 17.3192 75.2266 15.9346C74.6686 14.5511 74.3901 12.9762 74.3901 11.2098C74.3901 9.56251 74.6686 8.05029 75.2266 6.67207C75.7845 5.29492 76.5466 4.11237 77.5128 3.12337C78.4791 2.13437 79.6076 1.36763 80.8994 0.819959C82.1901 0.27335 83.5688 4.57764e-05 85.0344 4.57764e-05C85.7085 4.57764e-05 86.3774 0.0861843 87.039 0.257398C87.7006 0.428612 88.3424 0.66576 88.9652 0.96884C89.5881 1.27192 90.1816 1.62817 90.7459 2.03653C91.3101 2.4449 91.8388 2.88622 92.3318 3.36158L94.3952 0.850798H95.6796V21.9846V21.9835ZM90.3282 11.2087C90.3282 10.4707 90.189 9.75605 89.9095 9.06375C89.63 8.37145 89.251 7.75891 88.7705 7.22506C88.29 6.69122 87.7289 6.26265 87.0872 5.94043C86.4455 5.61714 85.7609 5.45656 85.0344 5.45656C84.3079 5.45656 83.6232 5.58205 82.9815 5.83195C82.3398 6.08293 81.7808 6.45194 81.3076 6.939C80.8334 7.42712 80.4607 8.03009 80.1886 8.74791C79.9164 9.46679 79.7803 10.2867 79.7803 11.2098C79.7803 12.1328 79.9164 12.9528 80.1886 13.6706C80.4607 14.3895 80.8334 14.9924 81.3076 15.4795C81.7808 15.9676 82.3388 16.3366 82.9815 16.5865C83.6232 16.8375 84.3079 16.9619 85.0344 16.9619C85.7609 16.9619 86.4455 16.8003 87.0872 16.477C87.7289 16.1537 88.29 15.7262 88.7705 15.1924C89.25 14.6585 89.63 14.046 89.9095 13.3537C90.1879 12.6614 90.3282 11.9467 90.3282 11.2087Z" fill="white"/>
<path d="M96.5778 22.0027H93.0489C92.8134 22.0027 92.6218 21.8081 92.6218 21.5688V20.0364C92.6218 19.6716 92.2062 19.4717 91.9267 19.7003C91.6325 19.9406 91.33 20.1714 91.0181 20.3937C90.4549 20.7957 89.8613 21.1445 89.2395 21.4401C88.6177 21.7368 87.9791 21.9697 87.3248 22.1409C86.6705 22.3121 86.0058 22.3972 85.3327 22.3972C83.8682 22.3972 82.4916 22.1473 81.2029 21.6464C79.9132 21.1466 78.7858 20.4192 77.8217 19.4653C76.8565 18.5114 76.0954 17.3427 75.5385 15.9613C74.9816 14.5788 74.7031 13.007 74.7031 11.2428C74.7031 9.59762 74.9816 8.08754 75.5385 6.71144C76.0954 5.33642 76.8565 4.15493 77.8217 3.167C78.7868 2.18012 79.9143 1.41338 81.2029 0.866773C82.4916 0.321228 83.8682 0.047924 85.3327 0.047924C86.0058 0.047924 86.6737 0.134063 87.3342 0.304214C87.9948 0.475428 88.6365 0.712574 89.2583 1.01459C89.8801 1.31767 90.4726 1.67286 91.0369 2.08122C91.3415 2.30242 91.6357 2.53212 91.9194 2.77246C92.2031 3.0128 92.6208 2.80968 92.6208 2.44173V1.3315C92.6208 1.09222 92.8123 0.897613 93.0479 0.897613H96.5767C96.8123 0.897613 97.0039 1.09222 97.0039 1.3315V21.5698C97.0039 21.8091 96.8123 22.0037 96.5767 22.0037L96.5778 22.0027ZM90.6202 11.2417C90.6202 10.5047 90.481 9.79011 90.2026 9.09993C89.9241 8.4087 89.5452 7.79722 89.0657 7.26337C88.5863 6.73059 88.0262 6.30308 87.3845 5.9798C86.7428 5.65757 86.0592 5.49593 85.3337 5.49593C84.6083 5.49593 83.9247 5.62142 83.283 5.87133C82.6413 6.12123 82.0844 6.49025 81.6112 6.97731C81.138 7.46436 80.7653 8.06627 80.4932 8.78409C80.221 9.50191 80.0849 10.3208 80.0849 11.2417C80.0849 12.1626 80.221 12.9826 80.4932 13.6993C80.7653 14.4171 81.138 15.019 81.6112 15.5061C82.0844 15.9932 82.6413 16.3622 83.283 16.6121C83.9247 16.862 84.6072 16.9875 85.3337 16.9875C86.0602 16.9875 86.7428 16.8269 87.3845 16.5036C88.0262 16.1814 88.5863 15.7528 89.0657 15.22C89.5452 14.6873 89.9241 14.0747 90.2026 13.3835C90.481 12.6922 90.6202 11.9787 90.6202 11.2417Z" fill="white"/>
</svg>
