<svg width="508" height="819" viewBox="0 0 508 819" fill="none" xmlns="http://www.w3.org/2000/svg">
<path d="M107.754 107.5C105.306 109.483 101.873 109.705 99.1757 108.713C96.4687 107.717 94.7022 105.599 95.2148 103.02C107.628 44.9387 174.073 0.500069 254.29 0.500022C334.508 0.500015 399.081 43.775 412.79 100.704L412.791 100.707L412.844 100.946C413.318 103.409 411.59 105.487 408.93 106.487C406.197 107.514 402.701 107.29 400.258 105.173L400.255 105.17C374.189 82.967 337.746 71.8881 307.872 66.3535C292.927 63.5847 279.608 62.2 270.024 61.5078C265.232 61.1617 261.374 60.989 258.712 60.9024C257.381 60.8591 256.349 60.837 255.649 60.8262C255.3 60.8208 255.033 60.8178 254.853 60.8164C254.764 60.8158 254.696 60.8156 254.65 60.8155L254.582 60.8155C254.581 60.8155 254.58 60.8155 254.58 61.3155C254.58 60.8308 254.58 60.8159 254.579 60.8155L254.513 60.8155C254.469 60.8156 254.403 60.8167 254.317 60.8174C254.145 60.8188 253.889 60.8215 253.553 60.8272C252.88 60.8386 251.888 60.8617 250.605 60.9072C248.04 60.9984 244.314 61.1805 239.666 61.5449C230.369 62.2738 217.38 63.7313 202.606 66.6465C173.07 72.4748 136.349 84.1389 107.753 107.499L107.754 107.5ZM33.5957 303.736C29.7732 307.443 24.5224 307.801 20.4209 305.975C16.3223 304.149 13.4507 300.186 14.2724 295.278C33.0823 190.434 133.377 110.284 254.435 110.284C375.495 110.284 473.038 188.246 493.729 291.056L493.729 291.057L493.814 291.527C494.577 296.358 491.727 300.23 487.687 302.033C483.513 303.896 478.161 303.5 474.414 299.659L474.412 299.657C435.147 259.702 380.24 239.746 335.196 229.773C312.668 224.786 292.591 222.292 278.145 221.045C270.922 220.421 265.106 220.11 261.095 219.954C259.089 219.876 257.534 219.837 256.48 219.817C255.953 219.808 255.552 219.803 255.281 219.801C255.146 219.8 255.043 219.798 254.975 219.798L254.872 219.798C254.871 219.799 254.87 219.82 254.87 220.298C254.87 219.798 254.869 219.798 254.868 219.798L254.769 219.798C254.703 219.798 254.605 219.8 254.476 219.801C254.216 219.803 253.83 219.808 253.324 219.818C252.312 219.839 250.817 219.88 248.885 219.962C245.02 220.126 239.405 220.455 232.4 221.111C218.391 222.425 198.816 225.051 176.55 230.304C132.317 240.739 77.4207 261.55 34.4443 303.061L34.4443 302.914L33.5957 303.736ZM254 818.5C113.861 818.5 0.50017 704.272 0.499978 563.373C0.499965 422.475 114.006 308.245 254 308.245L254.5 308.245L254.5 308.102C394.264 308.373 507.5 422.496 507.5 563.227C507.5 704.126 394.138 818.5 254 818.5Z" stroke="url(#paint0_linear_114_111)"/>
<defs>
<linearGradient id="paint0_linear_114_111" x1="254" y1="-3.88298e-05" x2="254" y2="561.863" gradientUnits="userSpaceOnUse">
<stop/>
<stop offset="1" stop-color="#666666" stop-opacity="0"/>
</linearGradient>
</defs>
</svg>
