<svg width="330" height="39" viewBox="0 0 330 39" fill="none" xmlns="http://www.w3.org/2000/svg">
<path d="M59.8361 37.5532H53.8076C53.4053 37.5532 53.078 37.2208 53.078 36.812V34.1941C53.078 33.571 52.368 33.2295 51.8905 33.6201C51.388 34.0306 50.8712 34.4249 50.3382 34.8046C49.3761 35.4913 48.3621 36.0872 47.2998 36.5922C46.2376 37.0991 45.1467 37.4969 44.029 37.7894C42.9113 38.0819 41.7757 38.2272 40.6258 38.2272C38.1239 38.2272 35.7722 37.8003 33.5707 36.9447C31.3675 36.0908 29.4415 34.8482 27.7944 33.2186C26.1455 31.589 24.8454 29.5924 23.894 27.2325C22.9426 24.8708 22.4669 22.1857 22.4669 19.1718C22.4669 16.3613 22.9426 13.7816 23.894 11.4308C24.8454 9.08175 26.1455 7.06338 27.7944 5.37566C29.4432 3.68975 31.3693 2.3799 33.5707 1.44611C35.7722 0.514137 38.1239 0.0472412 40.6258 0.0472412C41.7757 0.0472412 42.9166 0.194395 44.0451 0.485069C45.1735 0.77756 46.2698 1.18269 47.332 1.69863C48.3943 2.2164 49.4065 2.82318 50.3704 3.52079C50.8908 3.89867 51.3934 4.29108 51.878 4.70166C52.3626 5.11223 53.0762 4.76524 53.0762 4.13666V2.24001C53.0762 1.83125 53.4035 1.49879 53.8058 1.49879H59.8343C60.2367 1.49879 60.564 1.83125 60.564 2.24001V36.8138C60.564 37.2226 60.2367 37.5551 59.8343 37.5551L59.8361 37.5532ZM49.6587 19.1718C49.6587 17.9128 49.4208 16.692 48.9451 15.5129C48.4694 14.332 47.822 13.2874 47.003 12.3754C46.1839 11.4653 45.2272 10.735 44.1309 10.1827C43.0347 9.63221 41.8669 9.35607 40.6275 9.35607C39.3882 9.35607 38.2204 9.57044 37.1242 9.99737C36.0279 10.4243 35.0765 11.0547 34.2682 11.8867C33.4599 12.7188 32.8232 13.7471 32.3582 14.9733C31.8933 16.1996 31.6608 17.5985 31.6608 19.1718C31.6608 20.745 31.8933 22.1457 32.3582 23.3702C32.8232 24.5965 33.4599 25.6247 34.2682 26.4568C35.0765 27.2888 36.0279 27.9192 37.1242 28.3462C38.2204 28.7731 39.3864 28.9875 40.6275 28.9875C41.8687 28.9875 43.0347 28.7131 44.1309 28.1609C45.2272 27.6104 46.1839 26.8783 47.003 25.9681C47.822 25.0579 48.4694 24.0115 48.9451 22.8306C49.4208 21.6498 49.6587 20.4307 49.6587 19.1718Z" fill="white"/>
<path d="M23.8727 1.87122C24.4736 1.25172 23.9871 0.15079 23.177 0.296127C14.9936 1.77311 8.74689 9.64674 8.74689 19.1372C8.74689 28.6277 14.8255 36.2888 22.8444 37.9148C23.6688 38.0819 24.1749 36.9519 23.5508 36.3342C17.3452 30.2046 17.3452 19.1699 17.3452 19.1699C17.3452 19.1699 17.3452 8.60213 23.8727 1.8694V1.87122Z" fill="white"/>
<path d="M8.3927 7.73917C8.72533 7.3286 8.45529 6.59828 8.00641 6.69457C3.46581 7.67377 0 12.8968 0 19.1917C0 25.4866 3.37282 30.5662 7.82221 31.6453C8.28003 31.7561 8.5608 31.0076 8.21386 30.597C4.76951 26.5312 4.76951 19.2135 4.76951 19.2135C4.76951 19.2135 4.76951 12.2047 8.39091 7.73917H8.3927Z" fill="white"/>
<path d="M92.8208 35.4676C92.8118 34.6319 91.8712 34.1651 91.2184 34.6719C90.9699 34.8663 90.7159 35.0552 90.4566 35.2405C89.625 35.8364 88.7559 36.3542 87.8474 36.7938C86.9389 37.2335 86.0018 37.5823 85.0379 37.8403C84.074 38.0982 83.0922 38.229 82.0961 38.229C79.9018 38.229 77.8398 37.8348 75.912 37.0464C73.9842 36.2579 72.2942 35.1388 70.842 33.6854C69.3899 32.2339 68.249 30.4662 67.4174 28.3825C66.5858 26.3005 66.1709 23.9642 66.1709 21.3754V2.39622C66.1709 1.83667 66.618 1.38068 67.1706 1.38068H74.2167C74.7675 1.38068 75.2163 1.83485 75.2163 2.39622V21.3754C75.2163 22.5908 75.3987 23.6772 75.7654 24.6346C76.1302 25.592 76.6238 26.3968 77.2443 27.049C77.8649 27.703 78.5909 28.1972 79.4225 28.5351C80.2541 28.873 81.1465 29.0419 82.0997 29.0419C83.0529 29.0419 83.9113 28.8221 84.7428 28.3825C85.5744 27.9428 86.3005 27.3633 86.921 26.6439C87.5416 25.9244 88.0298 25.1069 88.3839 24.1949C88.738 23.2829 88.915 22.3437 88.915 21.3754V2.39622C88.915 1.83667 89.3621 1.38068 89.9147 1.38068H96.993C97.5438 1.38068 97.9927 1.83485 97.9927 2.39622V36.5377C97.9927 37.0972 97.5456 37.5532 96.993 37.5532H93.8366C93.2893 37.5532 92.844 37.1045 92.8369 36.5486L92.8261 35.4658L92.8208 35.4676Z" fill="white"/>
<path d="M112.606 37.555H105.003C104.596 37.555 104.266 37.2208 104.266 36.8065V2.13279C104.266 1.71858 104.596 1.38431 105.003 1.38431H108.648C109.049 1.38431 109.378 1.71132 109.385 2.11826L109.424 4.12391C109.435 4.72887 110.118 5.07768 110.595 4.71434C111.765 3.82052 113.047 3.09928 114.44 2.55064C116.302 1.8185 118.23 1.45334 120.226 1.45334H127.501C127.908 1.45334 128.237 1.78762 128.237 2.20183V9.89197C128.237 10.3062 127.908 10.6405 127.501 10.6405H120.226C119.272 10.6405 118.375 10.8203 117.532 11.18C116.69 11.5397 115.959 12.0357 115.338 12.6661C114.718 13.2965 114.229 14.0395 113.875 14.8952C113.521 15.7509 113.344 16.6629 113.344 17.6312V36.8084C113.344 37.2226 113.015 37.5569 112.607 37.5569L112.606 37.555Z" fill="white"/>
<path d="M166.37 37.5551H164.175L160.65 32.59C159.787 33.3784 158.871 34.116 157.907 34.8027C156.943 35.4895 155.929 36.0853 154.865 36.5922C153.801 37.0991 152.71 37.4987 151.591 37.7912C150.471 38.0837 149.336 38.2309 148.184 38.2309C145.678 38.2309 143.325 37.8039 141.12 36.9483C138.915 36.0926 136.985 34.85 135.335 33.2168C133.684 31.5853 132.38 29.587 131.429 27.2216C130.476 24.8581 130 22.1675 130 19.15C130 16.3359 130.476 13.7525 131.429 11.398C132.382 9.0454 133.684 7.02522 135.335 5.33568C136.985 3.64614 138.913 2.33629 141.12 1.40068C143.325 0.466895 145.68 0 148.184 0C149.336 0 150.478 0.147153 151.609 0.439644C152.739 0.732134 153.835 1.13726 154.899 1.65502C155.963 2.17279 156.977 2.78138 157.941 3.479C158.905 4.17662 159.808 4.93055 160.65 5.74262L164.175 1.45337H166.37V37.5569V37.5551ZM157.228 19.1481C157.228 17.8873 156.99 16.6665 156.512 15.4838C156.035 14.3012 155.387 13.2547 154.566 12.3427C153.746 11.4307 152.787 10.6986 151.691 10.1482C150.595 9.59587 149.425 9.32155 148.184 9.32155C146.943 9.32155 145.773 9.53592 144.677 9.96284C143.581 10.3916 142.626 11.022 141.817 11.854C141.007 12.6879 140.371 13.718 139.906 14.9443C139.441 16.1724 139.208 17.573 139.208 19.15C139.208 20.7269 139.441 22.1275 139.906 23.3538C140.371 24.5819 141.007 25.612 141.817 26.4441C142.626 27.2779 143.579 27.9083 144.677 28.3352C145.773 28.764 146.943 28.9765 148.184 28.9765C149.425 28.9765 150.595 28.7004 151.691 28.1481C152.787 27.5958 153.746 26.8655 154.566 25.9535C155.386 25.0415 156.035 23.9951 156.512 22.8124C156.988 21.6298 157.228 20.4089 157.228 19.1481Z" fill="white"/>
<path d="M186.254 27.9973C185.39 27.9973 184.575 27.8829 183.807 27.6522C183.04 27.4214 182.334 27.0926 181.685 26.6657C181.037 26.2369 180.476 25.7283 180 25.136L181.88 23.2266C182.441 23.9297 183.088 24.4493 183.823 24.789C184.557 25.1287 185.379 25.2995 186.286 25.2995C187.193 25.2995 187.896 25.1396 188.393 24.8217C188.89 24.5038 189.138 24.0587 189.138 23.4883C189.138 22.9178 188.938 22.4745 188.539 22.1548C188.139 21.8369 187.627 21.5734 187 21.3645C186.374 21.1556 185.708 20.9485 185.007 20.7396C184.305 20.5306 183.641 20.2618 183.015 19.933C182.389 19.6041 181.876 19.1536 181.477 18.5831C181.077 18.0127 180.878 17.2551 180.878 16.3122C180.878 15.3694 181.105 14.5518 181.558 13.8597C182.012 13.1693 182.643 12.637 183.453 12.2628C184.263 11.8904 185.24 11.7032 186.384 11.7032C187.593 11.7032 188.668 11.9176 189.609 12.3445C190.548 12.7733 191.32 13.4146 191.925 14.2703L190.045 16.1796C189.612 15.6092 189.078 15.1713 188.441 14.8625C187.804 14.5555 187.085 14.4011 186.286 14.4011C185.444 14.4011 184.802 14.55 184.358 14.8462C183.915 15.1423 183.695 15.5547 183.695 16.0797C183.695 16.6047 183.89 17.0117 184.278 17.2969C184.666 17.5821 185.179 17.8237 185.816 18.0218C186.452 18.2198 187.118 18.4233 187.808 18.6304C188.498 18.8393 189.158 19.1191 189.784 19.4697C190.41 19.8203 190.923 20.2927 191.322 20.8849C191.721 21.4772 191.921 22.2565 191.921 23.2212C191.921 24.6909 191.408 25.8536 190.383 26.7093C189.357 27.565 187.98 27.9937 186.252 27.9937L186.254 27.9973Z" fill="white"/>
<path d="M195.194 34.2178V12.0357H198.109V16.1487L197.558 19.933L198.109 23.7499V34.2159H195.194V34.2178ZM203.293 27.9973C202.127 27.9973 201.074 27.7503 200.135 27.2561C199.196 26.762 198.445 26.0771 197.883 25.1996C197.322 24.3221 197.009 23.3229 196.945 22.2038V17.4967C197.009 16.3558 197.327 15.353 197.9 14.4846C198.472 13.6181 199.228 12.9386 200.167 12.4445C201.106 11.9503 202.149 11.7032 203.293 11.7032C204.697 11.7032 205.967 12.0648 207.101 12.7896C208.234 13.5145 209.125 14.4901 209.774 15.7182C210.422 16.9481 210.745 18.3288 210.745 19.8657C210.745 21.4027 210.422 22.7834 209.774 24.0133C209.127 25.2414 208.236 26.2133 207.101 26.9255C205.967 27.6394 204.697 27.9955 203.293 27.9955V27.9973ZM202.809 25.1996C203.78 25.1996 204.633 24.9689 205.368 24.5092C206.101 24.0478 206.686 23.4174 207.117 22.6162C207.548 21.8151 207.764 20.8885 207.764 19.8348C207.764 18.7812 207.548 17.8819 207.117 17.0698C206.684 16.2577 206.101 15.6273 205.368 15.1768C204.633 14.7281 203.79 14.5028 202.841 14.5028C201.891 14.5028 201.015 14.7281 200.282 15.1768C199.547 15.6273 198.974 16.2577 198.565 17.0698C198.154 17.8819 197.95 18.8139 197.95 19.8675C197.95 20.9212 198.15 21.8151 198.549 22.6162C198.948 23.4174 199.52 24.0478 200.266 24.5092C201.011 24.9707 201.859 25.1996 202.809 25.1996Z" fill="white"/>
<path d="M221.08 27.9972C219.567 27.9972 218.208 27.6357 216.997 26.9108C215.788 26.186 214.826 25.205 214.114 23.966C213.401 22.727 213.045 21.339 213.045 19.8021C213.045 18.2651 213.401 16.9226 214.114 15.7054C214.828 14.4882 215.788 13.5162 216.997 12.7932C218.206 12.0683 219.567 11.7068 221.08 11.7068C222.593 11.7068 223.925 12.0629 225.147 12.7768C226.366 13.4908 227.334 14.4609 228.046 15.689C228.759 16.9171 229.115 18.2887 229.115 19.8021C229.115 21.3154 228.759 22.7251 228.046 23.966C227.332 25.205 226.366 26.1878 225.147 26.9108C223.927 27.6357 222.571 27.9972 221.08 27.9972ZM221.08 25.1341C222.051 25.1341 222.915 24.9034 223.671 24.4438C224.428 23.9823 225.022 23.3519 225.453 22.5507C225.885 21.7496 226.1 20.8339 226.1 19.8021C226.1 18.7702 225.878 17.8927 225.436 17.1042C224.993 16.314 224.399 15.6945 223.655 15.2439C222.909 14.7952 222.051 14.5699 221.08 14.5699C220.109 14.5699 219.243 14.7952 218.489 15.2439C217.732 15.6945 217.138 16.314 216.708 17.1042C216.275 17.8945 216.06 18.7938 216.06 19.8021C216.06 20.8103 216.277 21.7496 216.708 22.5507C217.138 23.3519 217.732 23.9823 218.489 24.4438C219.245 24.9052 220.109 25.1341 221.08 25.1341Z" fill="white"/>
<path d="M232.386 27.6667V12.0339H235.301V27.6667H232.386ZM235.301 18.7485L234.199 18.2543C234.199 16.2578 234.654 14.6663 235.56 13.4818C236.467 12.2973 237.774 11.7051 239.48 11.7051C240.258 11.7051 240.959 11.8431 241.587 12.1157C242.213 12.39 242.796 12.846 243.336 13.4818L241.424 15.4893C241.101 15.1387 240.745 14.8861 240.355 14.7317C239.967 14.5791 239.512 14.501 238.994 14.501C237.914 14.501 237.028 14.8516 236.336 15.5547C235.644 16.2578 235.299 17.3205 235.299 18.7467L235.301 18.7485Z" fill="white"/>
<path d="M243.919 14.7334V12.0356H254.417V14.7334H243.919ZM247.71 27.6666V5.48456H250.625V27.6666H247.71Z" fill="white"/>
<path d="M263.907 27.9973C262.373 27.9973 260.992 27.6413 259.76 26.9273C258.53 26.2152 257.557 25.2432 256.845 24.0151C256.132 22.787 255.776 21.3936 255.776 19.8349C255.776 18.2761 256.126 16.9172 256.829 15.6873C257.53 14.4592 258.481 13.4873 259.68 12.7751C260.878 12.063 262.223 11.7051 263.712 11.7051C265.202 11.7051 266.395 12.0339 267.486 12.6916C268.577 13.3492 269.43 14.2612 270.045 15.4239C270.66 16.5866 270.968 17.9037 270.968 19.3734C270.968 19.5932 270.957 19.8294 270.935 20.0819C270.914 20.3345 270.871 20.6251 270.807 20.954H257.816V18.485H269.253L268.183 19.4388C268.183 18.3851 267.999 17.4913 267.632 16.7574C267.266 16.0234 266.747 15.453 266.077 15.046C265.406 14.6409 264.598 14.4374 263.646 14.4374C262.695 14.4374 261.777 14.6572 261.023 15.0951C260.266 15.5347 259.683 16.1488 259.274 16.9372C258.864 17.7275 258.658 18.6594 258.658 19.7349C258.658 20.8104 258.875 21.7915 259.306 22.6144C259.737 23.4374 260.354 24.0732 261.153 24.5238C261.953 24.9743 262.87 25.1978 263.907 25.1978C264.771 25.1978 265.565 25.0452 266.288 24.7364C267.01 24.4293 267.632 23.9679 268.151 23.3538L270.031 25.2959C269.296 26.1734 268.394 26.8419 267.325 27.3034C266.255 27.7648 265.116 27.9937 263.907 27.9937V27.9973Z" fill="white"/>
<path d="M274.146 27.6666V4.16928H277.061V27.6684H274.146V27.6666Z" fill="white"/>
<path d="M281.336 27.6666V4.16928H284.251V27.6684H281.336V27.6666Z" fill="white"/>
<path d="M295.656 27.9973C294.121 27.9973 292.741 27.6413 291.509 26.9273C290.278 26.2152 289.305 25.2432 288.594 24.0151C287.88 22.787 287.524 21.3936 287.524 19.8349C287.524 18.2761 287.875 16.9172 288.577 15.6873C289.278 14.4592 290.23 13.4873 291.428 12.7751C292.626 12.063 293.971 11.7051 295.461 11.7051C296.95 11.7051 298.143 12.0339 299.234 12.6916C300.325 13.3492 301.178 14.2612 301.793 15.4239C302.408 16.5866 302.716 17.9037 302.716 19.3734C302.716 19.5932 302.705 19.8294 302.684 20.0819C302.662 20.3345 302.62 20.6251 302.555 20.954H289.565V18.485H301.001L299.932 19.4388C299.932 18.3851 299.747 17.4913 299.381 16.7574C299.014 16.0234 298.496 15.453 297.825 15.046C297.154 14.6409 296.346 14.4374 295.395 14.4374C294.443 14.4374 293.526 14.6572 292.771 15.0951C292.015 15.5347 291.432 16.1488 291.022 16.9372C290.613 17.7275 290.407 18.6594 290.407 19.7349C290.407 20.8104 290.623 21.7915 291.054 22.6144C291.485 23.4374 292.102 24.0732 292.902 24.5238C293.701 24.9743 294.618 25.1978 295.656 25.1978C296.519 25.1978 297.314 25.0452 298.036 24.7364C298.758 24.4293 299.381 23.9679 299.899 23.3538L301.779 25.2959C301.044 26.1734 300.143 26.8419 299.073 27.3034C298.004 27.7648 296.865 27.9937 295.656 27.9937V27.9973Z" fill="white"/>
<path d="M305.894 27.6667V12.0339H308.809V27.6667H305.894ZM308.809 18.7485L307.707 18.2543C307.707 16.2578 308.162 14.6663 309.068 13.4818C309.975 12.2973 311.282 11.7051 312.988 11.7051C313.766 11.7051 314.467 11.8431 315.095 12.1157C315.721 12.39 316.304 12.846 316.844 13.4818L314.932 15.4893C314.609 15.1387 314.253 14.8861 313.863 14.7317C313.475 14.5791 313.02 14.501 312.502 14.501C311.422 14.501 310.536 14.8516 309.844 15.5547C309.152 16.2578 308.807 17.3205 308.807 18.7467L308.809 18.7485Z" fill="white"/>
<path d="M323.452 27.9973C322.588 27.9973 321.773 27.8829 321.005 27.6522C320.238 27.4214 319.532 27.0926 318.883 26.6657C318.235 26.2369 317.674 25.7283 317.198 25.136L319.078 23.2266C319.639 23.9297 320.287 24.4493 321.022 24.789C321.755 25.1287 322.577 25.2995 323.484 25.2995C324.391 25.2995 325.094 25.1396 325.591 24.8217C326.088 24.5038 326.336 24.0587 326.336 23.4883C326.336 22.9178 326.136 22.4745 325.737 22.1548C325.337 21.8369 324.825 21.5734 324.198 21.3645C323.572 21.1556 322.906 20.9485 322.205 20.7396C321.503 20.5306 320.839 20.2618 320.213 19.933C319.587 19.6041 319.074 19.1536 318.675 18.5831C318.275 18.0127 318.076 17.2551 318.076 16.3122C318.076 15.3694 318.303 14.5518 318.756 13.8597C319.21 13.1693 319.841 12.637 320.651 12.2628C321.461 11.8904 322.438 11.7032 323.582 11.7032C324.791 11.7032 325.866 11.9176 326.807 12.3445C327.746 12.7733 328.518 13.4146 329.123 14.2703L327.243 16.1796C326.81 15.6092 326.276 15.1713 325.639 14.8625C325.002 14.5555 324.283 14.4011 323.484 14.4011C322.642 14.4011 322 14.55 321.556 14.8462C321.113 15.1423 320.893 15.5547 320.893 16.0797C320.893 16.6047 321.088 17.0117 321.476 17.2969C321.864 17.5821 322.377 17.8237 323.014 18.0218C323.65 18.2198 324.316 18.4233 325.006 18.6304C325.696 18.8393 326.356 19.1191 326.982 19.4697C327.608 19.8203 328.121 20.2927 328.52 20.8849C328.919 21.4772 329.119 22.2565 329.119 23.2212C329.119 24.6909 328.606 25.8536 327.581 26.7093C326.555 27.565 325.178 27.9937 323.45 27.9937L323.452 27.9973Z" fill="white"/>
</svg>
