<svg width="884" height="213" viewBox="0 0 884 213" fill="none" xmlns="http://www.w3.org/2000/svg">
<path d="M321.415 201.367H289.033C286.871 201.367 285.113 199.584 285.113 197.393V183.355C285.113 180.014 281.3 178.182 278.735 180.277C276.035 182.478 273.259 184.592 270.396 186.628C265.228 190.31 259.782 193.506 254.075 196.214C248.369 198.932 242.51 201.065 236.506 202.633C230.502 204.202 224.402 204.981 218.225 204.981C204.786 204.981 192.154 202.692 180.329 198.104C168.494 193.525 158.148 186.862 149.301 178.124C140.444 169.386 133.46 158.68 128.349 146.026C123.239 133.362 120.684 118.964 120.684 102.803C120.684 87.7325 123.239 73.8996 128.349 61.2941C133.46 48.6984 140.444 37.8756 149.301 28.8257C158.157 19.7856 168.503 12.762 180.329 7.75486C192.154 2.75747 204.786 0.253906 218.225 0.253906C224.402 0.253906 230.531 1.04297 236.592 2.60161C242.654 4.16999 248.542 6.34234 254.248 9.10893C259.955 11.8853 265.392 15.1389 270.569 18.8796C273.365 20.9059 276.064 23.01 278.667 25.2116C281.271 27.4132 285.104 25.5526 285.104 22.182V12.0119C285.104 9.82005 286.862 8.03737 289.023 8.03737H321.405C323.567 8.03737 325.325 9.82005 325.325 12.0119V197.402C325.325 199.594 323.567 201.377 321.405 201.377L321.415 201.367ZM266.746 102.803C266.746 96.0518 265.468 89.5055 262.913 83.1833C260.358 76.8513 256.881 71.2499 252.481 66.3597C248.081 61.4792 242.942 57.5631 237.053 54.6017C231.165 51.65 224.892 50.1693 218.235 50.1693C211.578 50.1693 205.305 51.3188 199.416 53.6081C193.528 55.8973 188.417 59.2776 184.075 63.7392C179.733 68.2008 176.313 73.7145 173.816 80.29C171.318 86.8655 170.069 94.3665 170.069 102.803C170.069 111.239 171.318 118.749 173.816 125.315C176.313 131.891 179.733 137.404 184.075 141.866C188.417 146.328 193.528 149.708 199.416 151.997C205.305 154.286 211.568 155.436 218.235 155.436C224.901 155.436 231.165 153.965 237.053 151.004C242.942 148.052 248.081 144.126 252.481 139.246C256.881 134.365 260.358 128.754 262.913 122.422C265.468 116.09 266.746 109.553 266.746 102.803Z" fill="#283221"/>
<path d="M879.931 208.537H847.548C845.387 208.537 843.629 206.754 843.629 204.562V190.525C843.629 187.184 839.815 185.352 837.25 187.447C834.551 189.648 831.775 191.762 828.912 193.798C823.744 197.48 818.297 200.676 812.591 203.384C806.885 206.102 801.025 208.235 795.021 209.803C789.017 211.372 782.918 212.151 776.741 212.151C763.302 212.151 750.669 209.862 738.844 205.274C727.009 200.695 716.663 194.032 707.816 185.294C698.959 176.556 691.975 165.85 686.865 153.196C681.754 140.532 679.199 126.134 679.199 109.973C679.199 94.9025 681.754 81.0695 686.865 68.464C691.975 55.8683 698.959 45.0455 707.816 35.9956C716.673 26.9555 727.019 19.9319 738.844 14.9248C750.669 9.9274 763.302 7.42383 776.741 7.42383C782.918 7.42383 789.046 8.21289 795.108 9.77153C801.169 11.3399 807.058 13.5123 812.764 16.2789C818.47 19.0552 823.907 22.3088 829.085 26.0496C831.88 28.0758 834.58 30.18 837.183 32.3815C839.786 34.5831 843.619 32.7225 843.619 29.3519V19.1818C843.619 16.99 845.377 15.2073 847.539 15.2073H879.921C882.082 15.2073 883.84 16.99 883.84 19.1818V204.572C883.84 206.764 882.082 208.547 879.921 208.547L879.931 208.537ZM825.262 109.973C825.262 103.222 823.984 96.6754 821.429 90.3532C818.874 84.0212 815.396 78.4198 810.996 73.5296C806.597 68.6491 801.458 64.7331 795.569 61.7716C789.68 58.82 783.407 57.3393 776.75 57.3393C770.093 57.3393 763.82 58.4888 757.932 60.778C752.043 63.0673 746.933 66.4475 742.591 70.9092C738.249 75.3708 734.829 80.8844 732.331 87.46C729.834 94.0355 728.585 101.536 728.585 109.973C728.585 118.409 729.834 125.919 732.331 132.485C734.829 139.061 738.249 144.574 742.591 149.036C746.933 153.498 752.043 156.878 757.932 159.167C763.82 161.456 770.084 162.606 776.75 162.606C783.417 162.606 789.68 161.135 795.569 158.173C801.458 155.222 806.597 151.296 810.996 146.415C815.396 141.535 818.874 135.924 821.429 129.592C823.984 123.26 825.262 116.723 825.262 109.973Z" fill="#283221"/>
<path d="M128.234 10.0336C131.461 6.71172 128.849 0.808379 124.497 1.5877C80.5389 9.50753 46.9844 51.7272 46.9844 102.617C46.9844 153.506 79.6359 194.586 122.71 203.305C127.139 204.201 129.857 198.142 126.505 194.83C93.1711 161.962 93.1711 102.792 93.1711 102.792C93.1711 102.792 93.1711 46.1258 128.234 10.0238V10.0336Z" fill="#283221"/>
<path d="M45.082 41.4993C46.8687 39.2977 45.4182 35.3817 43.007 35.898C18.6168 41.1486 0 69.1554 0 102.91C0 136.664 18.1173 163.901 42.0176 169.688C44.4768 170.282 45.985 166.268 44.1214 164.067C25.6198 142.265 25.6198 103.027 25.6198 103.027C25.6198 103.027 25.6198 65.4439 45.0724 41.4993H45.082Z" fill="#283221"/>
<path d="M493.222 190.184C493.174 185.703 488.121 183.199 484.615 185.917C483.28 186.96 481.916 187.973 480.523 188.966C476.056 192.162 471.387 194.938 466.507 197.295C461.627 199.653 456.594 201.523 451.416 202.906C446.238 204.29 440.964 204.991 435.614 204.991C423.827 204.991 412.751 202.877 402.395 198.649C392.04 194.422 382.962 188.421 375.162 180.628C367.361 172.844 361.233 163.366 356.766 152.192C352.299 141.028 350.07 128.501 350.07 114.619V12.8498C350.07 9.84941 352.472 7.4043 355.44 7.4043H393.289C396.247 7.4043 398.659 9.83967 398.659 12.8498V114.619C398.659 121.136 399.638 126.962 401.608 132.095C403.567 137.229 406.219 141.545 409.552 145.042C412.885 148.549 416.785 151.199 421.252 153.01C425.719 154.822 430.513 155.728 435.633 155.728C440.753 155.728 445.364 154.55 449.831 152.192C454.298 149.835 458.198 146.727 461.531 142.87C464.865 139.012 467.487 134.628 469.389 129.738C471.291 124.848 472.242 119.811 472.242 114.619V12.8498C472.242 9.84941 474.644 7.4043 477.612 7.4043H515.633C518.592 7.4043 521.003 9.83967 521.003 12.8498V195.922C521.003 198.922 518.602 201.367 515.633 201.367H498.678C495.739 201.367 493.347 198.961 493.309 195.98L493.251 190.174L493.222 190.184Z" fill="#283221"/>
<path d="M594.126 201.377H553.29C551.1 201.377 549.332 199.585 549.332 197.363V11.4373C549.332 9.21627 551.1 7.42383 553.29 7.42383H572.867C575.019 7.42383 576.787 9.1773 576.825 11.3594L577.036 22.114C577.094 25.3579 580.764 27.2283 583.328 25.28C589.611 20.4872 596.499 16.6198 603.982 13.6779C613.982 9.75204 624.337 7.79401 635.058 7.79401H674.136C676.326 7.79401 678.094 9.58644 678.094 11.8075V53.0432C678.094 55.2643 676.326 57.0567 674.136 57.0567H635.058C629.938 57.0567 625.116 58.0211 620.591 59.95C616.066 61.8788 612.138 64.5382 608.804 67.9185C605.471 71.2988 602.848 75.2831 600.946 79.8713C599.044 84.4596 598.093 89.3498 598.093 94.542V197.373C598.093 199.594 596.326 201.387 594.135 201.387L594.126 201.377Z" fill="#283221"/>
</svg>
