<svg width="878" height="205" viewBox="0 0 878 205" fill="none" xmlns="http://www.w3.org/2000/svg">
<path d="M321.414 201.367H289.032C286.87 201.367 285.112 199.584 285.112 197.393V183.355C285.112 180.014 281.299 178.182 278.734 180.277C276.034 182.478 273.258 184.592 270.395 186.628C265.227 190.31 259.781 193.506 254.075 196.214C248.368 198.932 242.509 201.065 236.505 202.633C230.501 204.202 224.401 204.981 218.224 204.981C204.785 204.981 192.153 202.692 180.328 198.104C168.493 193.525 158.147 186.862 149.3 178.124C140.443 169.386 133.459 158.68 128.348 146.026C123.238 133.362 120.683 118.964 120.683 102.803C120.683 87.7325 123.238 73.8996 128.348 61.2941C133.459 48.6984 140.443 37.8756 149.3 28.8257C158.156 19.7856 168.502 12.762 180.328 7.75486C192.153 2.75747 204.785 0.253906 218.224 0.253906C224.401 0.253906 230.53 1.04297 236.591 2.60161C242.653 4.16999 248.541 6.34234 254.247 9.10893C259.954 11.8853 265.391 15.1389 270.568 18.8796C273.364 20.9059 276.063 23.01 278.666 25.2116C281.27 27.4132 285.103 25.5526 285.103 22.182V12.0119C285.103 9.82005 286.861 8.03737 289.022 8.03737H321.404C323.566 8.03737 325.324 9.82005 325.324 12.0119V197.402C325.324 199.594 323.566 201.377 321.404 201.377L321.414 201.367ZM266.745 102.803C266.745 96.0518 265.467 89.5055 262.912 83.1833C260.357 76.8513 256.88 71.2499 252.48 66.3597C248.08 61.4792 242.941 57.5631 237.052 54.6017C231.164 51.65 224.891 50.1693 218.234 50.1693C211.577 50.1693 205.304 51.3188 199.415 53.6081C193.527 55.8973 188.416 59.2776 184.074 63.7392C179.732 68.2008 176.312 73.7145 173.815 80.29C171.317 86.8655 170.068 94.3665 170.068 102.803C170.068 111.239 171.317 118.749 173.815 125.315C176.312 131.891 179.732 137.404 184.074 141.866C188.416 146.328 193.527 149.708 199.415 151.997C205.304 154.286 211.567 155.436 218.234 155.436C224.9 155.436 231.164 153.965 237.052 151.004C242.941 148.052 248.08 144.126 252.48 139.246C256.88 134.365 260.357 128.754 262.912 122.422C265.467 116.09 266.745 109.553 266.745 102.803Z" fill="#283221"/>
<path d="M128.234 10.0345C131.461 6.7127 128.849 0.809355 124.497 1.58867C80.5389 9.50851 46.9844 51.7281 46.9844 102.618C46.9844 153.507 79.6359 194.587 122.71 203.306C127.139 204.202 129.857 198.143 126.505 194.831C93.1711 161.963 93.1711 102.793 93.1711 102.793C93.1711 102.793 93.1711 46.1268 128.234 10.0248V10.0345Z" fill="#283221"/>
<path d="M45.082 41.4988C46.8687 39.2972 45.4182 35.3812 43.007 35.8975C18.6168 41.1481 0 69.1549 0 102.909C0 136.664 18.1173 163.901 42.0176 169.687C44.4768 170.281 45.985 166.268 44.1214 164.066C25.6198 142.265 25.6198 103.026 25.6198 103.026C25.6198 103.026 25.6198 65.4434 45.0724 41.4988H45.082Z" fill="#283221"/>
<path d="M493.223 190.183C493.175 185.702 488.122 183.199 484.616 185.917C483.281 186.959 481.917 187.972 480.524 188.966C476.057 192.161 471.388 194.937 466.508 197.295C461.628 199.652 456.595 201.523 451.417 202.906C446.239 204.289 440.965 204.991 435.615 204.991C423.828 204.991 412.752 202.877 402.396 198.649C392.041 194.421 382.963 188.42 375.163 180.627C367.362 172.844 361.234 163.365 356.767 152.192C352.3 141.028 350.071 128.5 350.071 114.619V12.8493C350.071 9.84892 352.473 7.40381 355.441 7.40381H393.29C396.248 7.40381 398.66 9.83918 398.66 12.8493V114.619C398.66 121.136 399.639 126.961 401.609 132.095C403.568 137.229 406.22 141.544 409.553 145.041C412.886 148.548 416.786 151.198 421.253 153.01C425.72 154.822 430.514 155.728 435.634 155.728C440.754 155.728 445.365 154.549 449.832 152.192C454.299 149.834 458.199 146.727 461.532 142.869C464.866 139.011 467.488 134.628 469.39 129.738C471.292 124.847 472.243 119.811 472.243 114.619V12.8493C472.243 9.84892 474.645 7.40381 477.613 7.40381H515.634C518.593 7.40381 521.004 9.83918 521.004 12.8493V195.921C521.004 198.922 518.603 201.367 515.634 201.367H498.679C495.74 201.367 493.348 198.961 493.31 195.98L493.252 190.174L493.223 190.183Z" fill="#283221"/>
<path d="M594.127 201.376H553.291C551.101 201.376 549.333 199.584 549.333 197.363V11.4368C549.333 9.21578 551.101 7.42334 553.291 7.42334H572.868C575.02 7.42334 576.788 9.17681 576.826 11.3589L577.037 22.1135C577.095 25.3574 580.765 27.2278 583.329 25.2795C589.612 20.4867 596.5 16.6193 603.983 13.6774C613.983 9.75155 624.338 7.79352 635.059 7.79352H674.137C676.327 7.79352 678.095 9.58595 678.095 11.807V53.0428C678.095 55.2638 676.327 57.0563 674.137 57.0563H635.059C629.939 57.0563 625.117 58.0207 620.592 59.9495C616.067 61.8783 612.138 64.5377 608.805 67.918C605.472 71.2983 602.849 75.2826 600.947 79.8708C599.045 84.4591 598.094 89.3493 598.094 94.5415V197.373C598.094 199.594 596.327 201.386 594.136 201.386L594.127 201.376Z" fill="#283221"/>
<path d="M878 201.376H866.213L847.279 174.753C842.639 178.98 837.721 182.936 832.543 186.618C827.365 190.3 821.919 193.495 816.203 196.213C810.487 198.931 804.628 201.074 798.614 202.643C792.601 204.211 786.501 205 780.314 205C766.856 205 754.214 202.711 742.37 198.123C730.525 193.534 720.16 186.871 711.294 178.113C702.427 169.366 695.424 158.65 690.314 145.967C685.193 133.293 682.638 118.866 682.638 102.685C682.638 87.5955 685.193 73.7431 690.314 61.1181C695.434 48.5029 702.427 37.6704 711.294 28.6108C720.16 19.5512 730.516 12.5276 742.37 7.51069C754.214 2.50356 766.865 0 780.314 0C786.501 0 792.639 0.789059 798.71 2.35744C804.781 3.92582 810.67 6.09818 816.386 8.8745C822.101 11.6508 827.548 14.9142 832.726 18.655C837.903 22.3957 842.755 26.4384 847.279 30.7929L866.213 7.7932H878V201.386V201.376ZM828.893 102.675C828.893 95.9147 827.615 89.3685 825.05 83.0268C822.485 76.685 819.008 71.0739 814.599 66.1837C810.19 61.2935 805.041 57.3677 799.152 54.416C793.263 51.4546 786.981 49.9836 780.314 49.9836C773.647 49.9836 767.365 51.1331 761.476 53.4224C755.588 55.7213 750.458 59.1016 746.116 63.5633C741.764 68.0346 738.345 73.558 735.847 80.1335C733.349 86.7188 732.101 94.2295 732.101 102.685C732.101 111.141 733.349 118.651 735.847 125.227C738.345 131.812 741.764 137.336 746.116 141.797C750.458 146.269 755.578 149.649 761.476 151.938C767.365 154.237 773.647 155.377 780.314 155.377C786.981 155.377 793.263 153.896 799.152 150.935C805.041 147.973 810.19 144.057 814.599 139.167C818.998 134.277 822.485 128.666 825.05 122.324C827.606 115.982 828.893 109.436 828.893 102.675Z" fill="#283221"/>
</svg>
