<svg width="407" height="525" viewBox="0 0 407 525" fill="none" xmlns="http://www.w3.org/2000/svg">
<path d="M77.2881 93.0097C75.1897 94.709 72.2422 94.8998 69.9239 94.0478C67.5953 93.192 66.1003 91.3835 66.5352 89.1963C77.2779 38.9586 134.791 0.500076 204.251 0.499981C273.712 0.499987 329.606 37.9516 341.47 87.1943L341.47 87.1973L341.515 87.4004C341.917 89.4877 340.457 91.2621 338.167 92.1221C335.818 93.0043 332.818 92.8097 330.724 90.9961L330.721 90.9932C308.13 71.7609 276.552 62.1669 250.673 57.375C237.725 54.9776 226.186 53.779 217.884 53.1797C213.733 52.88 210.389 52.7302 208.083 52.6553C206.93 52.6178 206.036 52.5992 205.43 52.5898C205.127 52.5851 204.896 52.5822 204.74 52.581C204.663 52.5804 204.603 52.5802 204.564 52.5801L204.504 52.5801C204.503 52.5801 204.503 52.5803 204.503 53.0801C204.503 52.5803 204.502 52.5801 204.501 52.5801L204.444 52.5801C204.406 52.5802 204.349 52.5814 204.274 52.582C204.125 52.5833 203.903 52.5849 203.611 52.5898C203.029 52.5997 202.169 52.6197 201.058 52.6592C198.835 52.7381 195.606 52.8963 191.579 53.2119C183.525 53.843 172.272 55.1046 159.473 57.6289C133.885 62.6753 102.068 72.7761 77.2872 93.0088L77.2881 93.0097ZM13.0528 262.894C9.76443 266.081 5.24612 266.39 1.71488 264.818C-1.81341 263.248 -4.27717 259.843 -3.57223 255.632C12.7133 164.905 99.5507 95.539 204.377 95.539C309.203 95.5391 393.659 163.011 411.574 251.977L411.574 251.979C412.459 256.311 409.969 259.805 406.379 261.406C402.785 263.01 398.18 262.666 394.957 259.364L394.956 259.363C360.934 224.761 313.362 207.481 274.342 198.847C254.826 194.528 237.433 192.37 224.919 191.29C218.662 190.75 213.623 190.48 210.148 190.345C208.41 190.277 207.063 190.243 206.149 190.227C205.693 190.218 205.345 190.214 205.11 190.212C204.993 190.211 204.904 190.21 204.845 190.21L204.756 190.21C204.755 190.21 204.754 190.21 204.754 190.71C204.754 190.21 204.753 190.21 204.752 190.21L204.666 190.21C204.609 190.21 204.523 190.211 204.411 190.212C204.186 190.214 203.852 190.219 203.413 190.228C202.536 190.245 201.24 190.281 199.566 190.353C196.218 190.495 191.354 190.779 185.285 191.348C173.149 192.485 156.191 194.759 136.902 199.307C98.6223 208.333 51.1197 226.327 13.9004 262.203L13.9004 262.071L13.0528 262.894ZM204 708.5C82.6571 708.5 -15.5 609.644 -15.5 487.706C-15.5 365.769 82.7826 266.912 204 266.912L204.5 266.912L204.5 266.788C325.488 267.059 423.5 365.81 423.5 487.58C423.5 609.518 325.342 708.5 204 708.5Z" stroke="#798378"/>
</svg>
