<svg width="284" height="75" viewBox="0 0 284 75" fill="none" xmlns="http://www.w3.org/2000/svg">
<path d="M71.881 73.0635H67.5445L60.5798 63.4049C58.8715 64.938 57.0536 66.3835 55.1263 67.7414C53.2428 69.0555 51.2497 70.2163 49.1472 71.2237C47.0446 72.1874 44.8764 72.954 42.6424 73.5234C40.4522 74.0929 38.2183 74.3776 35.9405 74.3776C30.9908 74.3776 26.3257 73.5453 21.9454 71.8808C17.6089 70.2163 13.798 67.8071 10.5128 64.6533C7.27133 61.4556 4.70884 57.5571 2.8253 52.9578C0.941768 48.3585 -6.70552e-07 43.124 -6.70552e-07 37.2544C-6.70552e-07 31.779 0.941768 26.7635 2.8253 22.208C4.70884 17.6086 7.27133 13.6664 10.5128 10.3811C13.798 7.09588 17.6089 4.55529 21.9454 2.75936C26.3257 0.91963 30.9908 -0.000236392 35.9405 -0.000236392C38.2183 -0.000236392 40.4741 0.284484 42.7081 0.853926C44.9421 1.42337 47.1103 2.21182 49.2129 3.2193C51.3154 4.22677 53.3085 5.40946 55.192 6.76736C57.1194 8.12525 58.9153 9.59266 60.5798 11.1696L67.5445 2.82507H71.881V73.0635ZM53.8122 37.2544C53.8122 34.8014 53.3304 32.436 52.3667 30.1583C51.4468 27.8367 50.1765 25.7998 48.5558 24.0477C46.9351 22.2518 45.0297 20.8282 42.8395 19.7769C40.6932 18.6818 38.3935 18.1343 35.9405 18.1343C33.4875 18.1343 31.166 18.5504 28.9758 19.3827C26.8295 20.2149 24.9459 21.4414 23.3252 23.0621C21.7483 24.6829 20.4999 26.6978 19.58 29.107C18.6602 31.4724 18.2002 34.1881 18.2002 37.2544C18.2002 40.3206 18.6602 43.0583 19.58 45.4675C20.4999 47.8328 21.7483 49.8259 23.3252 51.4466C24.9459 53.0673 26.8295 54.2938 28.9758 55.1261C31.166 55.9583 33.4875 56.3745 35.9405 56.3745C38.3935 56.3745 40.6932 55.8488 42.8395 54.7975C45.0297 53.7025 46.9351 52.2789 48.5558 50.5267C50.1765 48.7308 51.4468 46.694 52.3667 44.4162C53.3304 42.0946 53.8122 39.7074 53.8122 37.2544ZM137.323 64.8504C135.877 66.1645 134.322 67.4129 132.658 68.5956C131.037 69.7344 129.329 70.7419 127.533 71.618C125.737 72.4502 123.875 73.1073 121.948 73.5891C120.065 74.1148 118.137 74.3776 116.166 74.3776C111.83 74.3776 107.756 73.611 103.945 72.0779C100.134 70.5448 96.7831 68.3765 93.8921 65.5731C91.0449 62.7259 88.7891 59.2874 87.1245 55.2575C85.5038 51.1838 84.6935 46.6283 84.6935 41.5909V2.69366H102.565V41.5909C102.565 43.9563 102.916 46.0807 103.616 47.9643C104.361 49.804 105.347 51.359 106.573 52.6293C107.8 53.8996 109.223 54.8633 110.844 55.5203C112.508 56.1773 114.283 56.5059 116.166 56.5059C118.006 56.5059 119.736 56.0897 121.357 55.2575C123.021 54.3814 124.467 53.2425 125.693 51.8408C126.92 50.4391 127.883 48.8622 128.584 47.1101C129.285 45.3142 129.636 43.4744 129.636 41.5909V2.69366H147.573V73.0635H143.236L137.323 64.8504ZM179.243 73.0635H161.305V2.69366H165.642L171.555 11.0382C174.446 8.40998 177.731 6.39503 181.411 4.99333C185.09 3.54782 188.901 2.82507 192.844 2.82507H208.678V20.6968H192.844C190.96 20.6968 189.186 21.0472 187.521 21.748C185.857 22.4489 184.411 23.4126 183.185 24.6391C181.958 25.8655 180.995 27.311 180.294 28.9756C179.593 30.6401 179.243 32.4141 179.243 34.2977V73.0635ZM283.845 73.0635H279.508L272.543 63.4049C270.835 64.938 269.017 66.3835 267.09 67.7414C265.206 69.0555 263.213 70.2163 261.111 71.2237C259.008 72.1874 256.84 72.954 254.606 73.5234C252.416 74.0929 250.182 74.3776 247.904 74.3776C242.954 74.3776 238.289 73.5453 233.909 71.8808C229.572 70.2163 225.762 67.8071 222.476 64.6533C219.235 61.4556 216.672 57.5571 214.789 52.9578C212.905 48.3585 211.964 43.124 211.964 37.2544C211.964 31.779 212.905 26.7635 214.789 22.208C216.672 17.6086 219.235 13.6664 222.476 10.3811C225.762 7.09588 229.572 4.55529 233.909 2.75936C238.289 0.91963 242.954 -0.000236392 247.904 -0.000236392C250.182 -0.000236392 252.438 0.284484 254.672 0.853926C256.906 1.42337 259.074 2.21182 261.176 3.2193C263.279 4.22677 265.272 5.40946 267.156 6.76736C269.083 8.12525 270.879 9.59266 272.543 11.1696L279.508 2.82507H283.845V73.0635ZM265.776 37.2544C265.776 34.8014 265.294 32.436 264.33 30.1583C263.41 27.8367 262.14 25.7998 260.519 24.0477C258.899 22.2518 256.993 20.8282 254.803 19.7769C252.657 18.6818 250.357 18.1343 247.904 18.1343C245.451 18.1343 243.13 18.5504 240.939 19.3827C238.793 20.2149 236.91 21.4414 235.289 23.0621C233.712 24.6829 232.463 26.6978 231.544 29.107C230.624 31.4724 230.164 34.1881 230.164 37.2544C230.164 40.3206 230.624 43.0583 231.544 45.4675C232.463 47.8328 233.712 49.8259 235.289 51.4466C236.91 53.0673 238.793 54.2938 240.939 55.1261C243.13 55.9583 245.451 56.3745 247.904 56.3745C250.357 56.3745 252.657 55.8488 254.803 54.7975C256.993 53.7025 258.899 52.2789 260.519 50.5267C262.14 48.7308 263.41 46.694 264.33 44.4162C265.294 42.0946 265.776 39.7074 265.776 37.2544Z" fill="url(#paint0_linear_183_1829)"/>
<defs>
<linearGradient id="paint0_linear_183_1829" x1="143.828" y1="5.06348" x2="143.828" y2="73.0635" gradientUnits="userSpaceOnUse">
<stop stop-color="#31372A"/>
<stop offset="1" stop-color="#3F453B" stop-opacity="0.7"/>
</linearGradient>
</defs>
</svg>
